<?xml version="1.0" encoding="UTF-8"?>
<svg xmlns="http://www.w3.org/2000/svg" xmlns:xlink="http://www.w3.org/1999/xlink" width="380pt" height="520pt" viewBox="0 0 380 520" version="1.1">
<defs>
<radialGradient id="radial0" gradientUnits="userSpaceOnUse" cx="0" cy="0" fx="0" fy="0" r="220" gradientTransform="matrix(1,0,0,1,190,260)">
<stop offset="0" style="stop-color:rgb(100%,84.313725%,0%);stop-opacity:1;"/>
<stop offset="1" style="stop-color:rgb(80.392157%,67.843137%,0%);stop-opacity:1;"/>
</radialGradient>
<radialGradient id="radial1" gradientUnits="userSpaceOnUse" cx="0" cy="0" fx="0" fy="0" r="220" gradientTransform="matrix(1,0,0,1,190,260)">
<stop offset="0" style="stop-color:rgb(100%,84.313725%,0%);stop-opacity:1;"/>
<stop offset="1" style="stop-color:rgb(80.392157%,67.843137%,0%);stop-opacity:1;"/>
</radialGradient>
<radialGradient id="radial2" gradientUnits="userSpaceOnUse" cx="0" cy="0" fx="0" fy="0" r="220" gradientTransform="matrix(1,0,0,1,190,260)">
<stop offset="0" style="stop-color:rgb(100%,84.313725%,0%);stop-opacity:1;"/>
<stop offset="1" style="stop-color:rgb(80.392157%,67.843137%,0%);stop-opacity:1;"/>
</radialGradient>
</defs>
<g id="surface261">
<path style=" stroke:none;fill-rule:nonzero;fill:rgb(0%,0%,0%);fill-opacity:1;" d="M 365 260 L 364.785156 344.902344 L 364.136719 371.890625 L 363.050781 391.324219 L 361.523438 406.914062 L 359.542969 420.03125 L 357.105469 431.351562 L 354.1875 441.261719 L 350.777344 450 L 346.839844 457.734375 L 342.347656 464.578125 L 337.25 470.613281 L 331.488281 475.898438 L 324.980469 480.484375 L 317.601562 484.398438 L 309.171875 487.675781 L 299.402344 490.328125 L 287.792969 492.382812 L 273.324219 493.839844 L 253.226562 494.710938 L 190 495 L 126.773438 494.710938 L 106.675781 493.839844 L 92.207031 492.382812 L 80.597656 490.328125 L 70.828125 487.675781 L 62.398438 484.398438 L 55.019531 480.484375 L 48.511719 475.898438 L 42.75 470.613281 L 37.652344 464.578125 L 33.160156 457.734375 L 29.222656 450 L 25.8125 441.261719 L 22.894531 431.351562 L 20.457031 420.03125 L 18.476562 406.914062 L 16.949219 391.324219 L 15.863281 371.890625 L 15.214844 344.902344 L 15 260 L 15.214844 175.097656 L 15.863281 148.109375 L 16.949219 128.675781 L 18.476562 113.085938 L 20.457031 99.96875 L 22.894531 88.648438 L 25.8125 78.738281 L 29.222656 70 L 33.160156 62.265625 L 37.652344 55.421875 L 42.75 49.386719 L 48.511719 44.101562 L 55.019531 39.515625 L 62.398438 35.601562 L 70.828125 32.324219 L 80.597656 29.671875 L 92.207031 27.617188 L 106.675781 26.160156 L 126.773438 25.289062 L 190 25 L 253.226562 25.289062 L 273.324219 26.160156 L 287.792969 27.617188 L 299.402344 29.671875 L 309.171875 32.324219 L 317.601562 35.601562 L 324.980469 39.515625 L 331.488281 44.101562 L 337.25 49.386719 L 342.347656 55.421875 L 346.839844 62.265625 L 350.777344 70 L 354.1875 78.738281 L 357.105469 88.648438 L 359.542969 99.96875 L 361.523438 113.085938 L 363.050781 128.675781 L 364.136719 148.109375 L 364.785156 175.097656 Z M 365 260 "/>
<path style="fill:none;stroke-width:20;stroke-linecap:butt;stroke-linejoin:round;stroke:url(#radial0);stroke-miterlimit:10;" d="M 365 260 L 364.785156 344.902344 L 364.136719 371.890625 L 363.050781 391.324219 L 361.523438 406.914062 L 359.542969 420.03125 L 357.105469 431.351562 L 354.1875 441.261719 L 350.777344 450 L 346.839844 457.734375 L 342.347656 464.578125 L 337.25 470.613281 L 331.488281 475.898438 L 324.980469 480.484375 L 317.601562 484.398438 L 309.171875 487.675781 L 299.402344 490.328125 L 287.792969 492.382812 L 273.324219 493.839844 L 253.226562 494.710938 L 190 495 L 126.773438 494.710938 L 106.675781 493.839844 L 92.207031 492.382812 L 80.597656 490.328125 L 70.828125 487.675781 L 62.398438 484.398438 L 55.019531 480.484375 L 48.511719 475.898438 L 42.75 470.613281 L 37.652344 464.578125 L 33.160156 457.734375 L 29.222656 450 L 25.8125 441.261719 L 22.894531 431.351562 L 20.457031 420.03125 L 18.476562 406.914062 L 16.949219 391.324219 L 15.863281 371.890625 L 15.214844 344.902344 L 15 260 L 15.214844 175.097656 L 15.863281 148.109375 L 16.949219 128.675781 L 18.476562 113.085938 L 20.457031 99.96875 L 22.894531 88.648438 L 25.8125 78.738281 L 29.222656 70 L 33.160156 62.265625 L 37.652344 55.421875 L 42.75 49.386719 L 48.511719 44.101562 L 55.019531 39.515625 L 62.398438 35.601562 L 70.828125 32.324219 L 80.597656 29.671875 L 92.207031 27.617188 L 106.675781 26.160156 L 126.773438 25.289062 L 190 25 L 253.226562 25.289062 L 273.324219 26.160156 L 287.792969 27.617188 L 299.402344 29.671875 L 309.171875 32.324219 L 317.601562 35.601562 L 324.980469 39.515625 L 331.488281 44.101562 L 337.25 49.386719 L 342.347656 55.421875 L 346.839844 62.265625 L 350.777344 70 L 354.1875 78.738281 L 357.105469 88.648438 L 359.542969 99.96875 L 361.523438 113.085938 L 363.050781 128.675781 L 364.136719 148.109375 L 364.785156 175.097656 Z M 190 310 L 259.28125 270 L 259.28125 200 L 248.890625 194 L 291.316406 151.574219 M 190 350 L 293.921875 290 L 293.921875 330 M 190 410 L 302.582031 345 L 302.582031 455 M 190 310 L 120.71875 270 L 120.71875 200 L 131.109375 194 L 88.683594 151.574219 M 190 350 L 86.078125 290 L 86.078125 330 M 190 410 L 77.417969 345 L 77.417969 455 "/>
<path style=" stroke:none;fill-rule:nonzero;fill:url(#radial1);" d="M 216 285 L 215.960938 306.007812 L 215.839844 314.664062 L 215.636719 321.238281 L 215.355469 326.691406 L 214.992188 331.394531 L 214.542969 335.535156 L 214.007812 339.214844 L 213.386719 342.5 L 212.671875 345.441406 L 211.863281 348.066406 L 210.953125 350.402344 L 209.933594 352.460938 L 208.792969 354.253906 L 207.519531 355.792969 L 206.082031 357.089844 L 204.453125 358.140625 L 202.5625 358.957031 L 200.285156 359.535156 L 197.28125 359.882812 L 190 360 L 182.71875 359.882812 L 179.714844 359.535156 L 177.4375 358.957031 L 175.546875 358.140625 L 173.917969 357.089844 L 172.480469 355.792969 L 171.207031 354.253906 L 170.066406 352.460938 L 169.046875 350.402344 L 168.136719 348.066406 L 167.328125 345.441406 L 166.613281 342.5 L 165.992188 339.214844 L 165.457031 335.535156 L 165.007812 331.394531 L 164.644531 326.691406 L 164.363281 321.238281 L 164.160156 314.664062 L 164.039062 306.007812 L 164 285 L 164.039062 263.992188 L 164.160156 255.335938 L 164.363281 248.761719 L 164.644531 243.308594 L 165.007812 238.605469 L 165.457031 234.464844 L 165.992188 230.785156 L 166.613281 227.5 L 167.328125 224.558594 L 168.136719 221.933594 L 169.046875 219.597656 L 170.066406 217.539062 L 171.207031 215.746094 L 172.480469 214.207031 L 173.917969 212.910156 L 175.546875 211.859375 L 177.4375 211.042969 L 179.714844 210.464844 L 182.71875 210.117188 L 190 210 L 197.28125 210.117188 L 200.285156 210.464844 L 202.5625 211.042969 L 204.453125 211.859375 L 206.082031 212.910156 L 207.519531 214.207031 L 208.792969 215.746094 L 209.933594 217.539062 L 210.953125 219.597656 L 211.863281 221.933594 L 212.671875 224.558594 L 213.386719 227.5 L 214.007812 230.785156 L 214.542969 234.464844 L 214.992188 238.605469 L 215.355469 243.308594 L 215.636719 248.761719 L 215.839844 255.335938 L 215.960938 263.992188 Z M 240 310 L 239.921875 329.605469 L 239.691406 337.6875 L 239.304688 343.820312 L 238.761719 348.914062 L 238.058594 353.304688 L 237.195312 357.164062 L 236.167969 360.597656 L 234.972656 363.667969 L 233.601562 366.410156 L 232.042969 368.863281 L 230.292969 371.039062 L 228.332031 372.960938 L 226.140625 374.636719 L 223.6875 376.074219 L 220.929688 377.28125 L 217.792969 378.265625 L 214.15625 379.027344 L 209.777344 379.566406 L 204.003906 379.890625 L 190 380 L 175.996094 379.890625 L 170.222656 379.566406 L 165.84375 379.027344 L 162.207031 378.265625 L 159.070312 377.28125 L 156.3125 376.074219 L 153.859375 374.636719 L 151.667969 372.960938 L 149.707031 371.039062 L 147.957031 368.863281 L 146.398438 366.410156 L 145.027344 363.667969 L 143.832031 360.597656 L 142.804688 357.164062 L 141.941406 353.304688 L 141.238281 348.914062 L 140.695312 343.820312 L 140.308594 337.6875 L 140.078125 329.605469 L 140 310 L 140.078125 290.394531 L 140.308594 282.3125 L 140.695312 276.179688 L 141.238281 271.085938 L 141.941406 266.695312 L 142.804688 262.835938 L 143.832031 259.402344 L 145.027344 256.332031 L 146.398438 253.589844 L 147.957031 251.136719 L 149.707031 248.960938 L 151.667969 247.039062 L 153.859375 245.363281 L 156.3125 243.925781 L 159.070312 242.71875 L 162.207031 241.734375 L 165.84375 240.972656 L 170.222656 240.433594 L 175.996094 240.109375 L 190 240 L 204.003906 240.109375 L 209.777344 240.433594 L 214.15625 240.972656 L 217.792969 241.734375 L 220.929688 242.71875 L 223.6875 243.925781 L 226.140625 245.363281 L 228.332031 247.039062 L 230.292969 248.960938 L 232.042969 251.136719 L 233.601562 253.589844 L 234.972656 256.332031 L 236.167969 259.402344 L 237.195312 262.835938 L 238.058594 266.695312 L 238.761719 271.085938 L 239.304688 276.179688 L 239.691406 282.3125 L 239.921875 290.394531 Z M 255 350 L 254.898438 375.210938 L 254.597656 385.597656 L 254.097656 393.484375 L 253.390625 400.03125 L 252.476562 405.675781 L 251.355469 410.640625 L 250.019531 415.054688 L 248.464844 419 L 246.679688 422.53125 L 244.660156 425.679688 L 242.382812 428.480469 L 239.832031 430.949219 L 236.984375 433.105469 L 233.796875 434.953125 L 230.210938 436.507812 L 226.132812 437.769531 L 221.40625 438.746094 L 215.707031 439.445312 L 208.207031 439.859375 L 190 440 L 171.792969 439.859375 L 164.292969 439.445312 L 158.59375 438.746094 L 153.867188 437.769531 L 149.789062 436.507812 L 146.203125 434.953125 L 143.015625 433.105469 L 140.167969 430.949219 L 137.617188 428.480469 L 135.339844 425.679688 L 133.320312 422.53125 L 131.535156 419 L 129.980469 415.054688 L 128.644531 410.640625 L 127.523438 405.675781 L 126.609375 400.03125 L 125.902344 393.484375 L 125.402344 385.597656 L 125.101562 375.210938 L 125 350 L 125.101562 324.789062 L 125.402344 314.402344 L 125.902344 306.515625 L 126.609375 299.96875 L 127.523438 294.324219 L 128.644531 289.359375 L 129.980469 284.945312 L 131.535156 281 L 133.320312 277.46875 L 135.339844 274.320312 L 137.617188 271.519531 L 140.167969 269.050781 L 143.015625 266.894531 L 146.203125 265.046875 L 149.789062 263.492188 L 153.867188 262.230469 L 158.59375 261.253906 L 164.292969 260.554688 L 171.792969 260.140625 L 190 260 L 208.207031 260.140625 L 215.707031 260.554688 L 221.40625 261.253906 L 226.132812 262.230469 L 230.210938 263.492188 L 233.796875 265.046875 L 236.984375 266.894531 L 239.832031 269.050781 L 242.382812 271.519531 L 244.660156 274.320312 L 246.679688 277.46875 L 248.464844 281 L 250.019531 284.945312 L 251.355469 289.359375 L 252.476562 294.324219 L 253.390625 299.96875 L 254.097656 306.515625 L 254.597656 314.402344 L 254.898438 324.789062 Z M 255 350 "/>
<path style=" stroke:none;fill-rule:nonzero;fill:url(#radial2);" d="M 238 120 C 238 146.507812 216.507812 168 190 168 C 163.492188 168 142 146.507812 142 120 C 142 93.492188 163.492188 72 190 72 C 216.507812 72 238 93.492188 238 120 Z M 238 120 "/>
<path style=" stroke:none;fill-rule:nonzero;fill:rgb(79.6%,23.5%,20%);fill-opacity:1;" d="M 187.679688 130 C 187.679688 138.285156 180.964844 145 172.679688 145 C 164.394531 145 157.679688 138.285156 157.679688 130 C 157.679688 121.714844 164.394531 115 172.679688 115 C 180.964844 115 187.679688 121.714844 187.679688 130 Z M 187.679688 130 "/>
<path style=" stroke:none;fill-rule:nonzero;fill:rgb(22%,59.6%,14.9%);fill-opacity:1;" d="M 205 100 C 205 108.285156 198.285156 115 190 115 C 181.714844 115 175 108.285156 175 100 C 175 91.714844 181.714844 85 190 85 C 198.285156 85 205 91.714844 205 100 Z M 205 100 "/>
<path style=" stroke:none;fill-rule:nonzero;fill:rgb(58.4%,34.5%,69.8%);fill-opacity:1;" d="M 222.320312 130 C 222.320312 138.285156 215.605469 145 207.320312 145 C 199.035156 145 192.320312 138.285156 192.320312 130 C 192.320312 121.714844 199.035156 115 207.320312 115 C 215.605469 115 222.320312 121.714844 222.320312 130 Z M 222.320312 130 "/>
</g>
</svg>
