<?xml version="1.0" encoding="UTF-8"?>
<svg xmlns="http://www.w3.org/2000/svg" xmlns:xlink="http://www.w3.org/1999/xlink" width="800" height="300" viewBox="0 0 800 300">
<rect x="-80" y="-30" width="960" height="360" fill="rgb(94.117647%, 90.196078%, 54.901961%)" fill-opacity="1"/>
<path fill="none" stroke-width="15" stroke-linecap="butt" stroke-linejoin="miter" stroke="rgb(50.196078%, 0%, 50.196078%)" stroke-opacity="0.4" stroke-miterlimit="10" d="M 520 150 L 519.160156 161.011719 L 516.667969 171.714844 L 512.613281 181.808594 L 507.148438 191.015625 L 500.460938 199.097656 L 492.796875 205.859375 L 484.421875 211.144531 L 475.640625 214.871094 L 466.753906 217 L 458.070312 217.558594 L 449.886719 216.644531 L 442.472656 214.390625 L 436.0625 211 L 430.851562 206.703125 L 426.984375 201.765625 L 424.542969 196.488281 L 423.558594 191.164062 L 423.996094 186.101562 L 425.761719 181.582031 L 428.710938 177.875 L 432.644531 175.203125 L 437.328125 173.757812 L 442.484375 173.667969 L 447.824219 175.015625 L 453.046875 177.820312 L 457.847656 182.035156 L 461.941406 187.558594 L 465.070312 194.242188 L 467.003906 201.871094 L 467.5625 210.207031 L 466.617188 218.96875 L 464.089844 227.859375 L 459.96875 236.566406 L 454.300781 244.789062 L 447.195312 252.234375 L 438.8125 258.636719 L 429.355469 263.765625 L 419.085938 267.441406 L 408.277344 269.527344 L 397.234375 269.949219 L 386.269531 268.6875 L 375.695312 265.796875 L 365.796875 261.375 L 356.847656 255.582031 L 349.078125 248.625 L 342.675781 240.757812 L 337.773438 232.253906 L 334.449219 223.417969 L 332.714844 214.554688 L 332.535156 205.96875 L 333.800781 197.953125 L 336.355469 190.765625 L 340 184.640625 L 344.484375 179.753906 L 349.53125 176.238281 L 354.851562 174.160156 L 360.136719 173.535156 L 365.089844 174.316406 L 369.429688 176.394531 L 372.898438 179.609375 L 375.28125 183.757812 L 376.398438 188.582031 L 376.132812 193.8125 L 374.417969 199.152344 L 371.257812 204.296875 L 366.703125 208.949219 L 360.871094 212.824219 L 353.933594 215.675781 L 346.101562 217.277344 L 337.632812 217.472656 L 328.808594 216.132812 L 319.9375 213.207031 L 311.320312 208.691406 L 303.265625 202.65625 L 296.058594 195.210938 L 289.953125 186.539062 L 285.171875 176.855469 L 281.882812 166.421875 L 280.210938 155.527344 L 280.210938 144.472656 L 281.882812 133.578125 L 285.171875 123.144531 L 289.953125 113.460938 L 296.058594 104.789062 L 303.265625 97.34375 L 311.320312 91.308594 L 319.9375 86.792969 L 328.808594 83.867188 L 337.632812 82.527344 L 346.101562 82.722656 L 353.933594 84.324219 L 360.871094 87.175781 L 366.703125 91.050781 L 371.257812 95.703125 L 374.417969 100.847656 L 376.132812 106.1875 L 376.398438 111.417969 L 375.28125 116.242188 L 372.898438 120.390625 L 369.429688 123.605469 L 365.089844 125.683594 L 360.136719 126.464844 L 354.851562 125.839844 L 349.53125 123.761719 L 344.484375 120.246094 L 340 115.359375 L 336.355469 109.234375 L 333.800781 102.046875 L 332.535156 94.03125 L 332.714844 85.445312 L 334.449219 76.582031 L 337.773438 67.746094 L 342.675781 59.242188 L 349.078125 51.375 L 356.847656 44.417969 L 365.796875 38.625 L 375.695312 34.203125 L 386.269531 31.3125 L 397.234375 30.050781 L 408.277344 30.472656 L 419.085938 32.558594 L 429.355469 36.234375 L 438.8125 41.363281 L 447.195312 47.765625 L 454.300781 55.210938 L 459.96875 63.433594 L 464.089844 72.140625 L 466.617188 81.03125 L 467.5625 89.792969 L 467.003906 98.128906 L 465.070312 105.757812 L 461.941406 112.441406 L 457.847656 117.964844 L 453.046875 122.179688 L 447.824219 124.984375 L 442.484375 126.332031 L 437.328125 126.242188 L 432.644531 124.796875 L 428.710938 122.125 L 425.761719 118.417969 L 423.996094 113.898438 L 423.558594 108.835938 L 424.542969 103.511719 L 426.984375 98.234375 L 430.851562 93.296875 L 436.0625 89 L 442.472656 85.609375 L 449.886719 83.355469 L 458.070312 82.441406 L 466.753906 83 L 475.640625 85.128906 L 484.421875 88.855469 L 492.796875 94.140625 L 500.460938 100.902344 L 507.148438 108.984375 L 512.613281 118.191406 L 516.667969 128.285156 L 519.160156 138.988281 L 520 150 "/>
<path fill-rule="nonzero" fill="rgb(0%, 0%, 0%)" fill-opacity="1" d="M 71.792969 144.09375 C 71.792969 142.554688 70.296875 141.574219 68.640625 141.574219 C 66.472656 141.574219 64.976562 142.964844 64.160156 145.738281 C 63.976562 146.371094 63.601562 148.15625 63.042969 151.09375 L 60.765625 151.09375 C 59.984375 151.09375 59.613281 151.121094 59.613281 151.863281 C 59.613281 152.238281 59.972656 152.425781 60.695312 152.425781 L 62.796875 152.425781 L 60.242188 165.96875 C 59.867188 167.953125 59.519531 169.433594 59.191406 170.414062 C 58.769531 171.722656 58.175781 172.375 57.40625 172.375 C 56.894531 172.375 56.449219 172.246094 56.078125 171.988281 C 57.195312 171.804688 57.757812 171.148438 57.757812 170.03125 C 57.757812 169.121094 57.289062 168.664062 56.355469 168.664062 C 55.179688 168.664062 54.328125 169.722656 54.328125 170.90625 C 54.328125 172.445312 55.777344 173.425781 57.40625 173.425781 C 58.292969 173.425781 59.074219 173.0625 59.75 172.339844 C 60.871094 171.195312 61.746094 169.527344 62.375 167.335938 C 62.773438 165.980469 63.101562 164.640625 63.355469 163.308594 L 65.386719 152.425781 L 68.257812 152.425781 C 69.050781 152.425781 69.410156 152.386719 69.410156 151.585938 C 69.410156 151.257812 69.0625 151.09375 68.363281 151.09375 L 65.667969 151.09375 C 65.882812 149.671875 66.867188 144.367188 67.171875 143.710938 C 67.519531 142.988281 68.011719 142.625 68.640625 142.625 C 69.179688 142.625 69.632812 142.753906 70.007812 143.011719 C 68.910156 143.242188 68.363281 143.898438 68.363281 144.96875 C 68.363281 145.878906 68.828125 146.335938 69.761719 146.335938 C 70.9375 146.335938 71.792969 145.277344 71.792969 144.09375 Z M 71.792969 144.09375 "/>
<path fill-rule="nonzero" fill="rgb(0%, 0%, 0%)" fill-opacity="1" d="M 83.902344 174.929688 C 84.226562 174.929688 84.390625 174.765625 84.390625 174.441406 C 84.390625 174.324219 84.332031 174.195312 84.214844 174.054688 C 82.394531 172.65625 80.9375 170.355469 79.839844 167.160156 C 78.882812 164.382812 78.40625 161.652344 78.40625 158.96875 L 78.40625 156.03125 C 78.40625 153.347656 78.882812 150.617188 79.839844 147.839844 C 80.9375 144.644531 82.394531 142.34375 84.214844 140.945312 C 84.332031 140.828125 84.390625 140.699219 84.390625 140.558594 C 84.390625 140.234375 84.226562 140.070312 83.902344 140.070312 C 83.855469 140.070312 83.773438 140.105469 83.65625 140.175781 C 81.554688 141.785156 79.792969 144.175781 78.371094 147.351562 C 76.996094 150.382812 76.304688 153.277344 76.304688 156.03125 L 76.304688 158.96875 C 76.304688 161.722656 76.996094 164.617188 78.371094 167.648438 C 79.792969 170.824219 81.554688 173.214844 83.65625 174.824219 C 83.773438 174.894531 83.855469 174.929688 83.902344 174.929688 Z M 83.902344 174.929688 "/>
<path fill-rule="nonzero" fill="rgb(0%, 0%, 0%)" fill-opacity="1" d="M 97.9375 151.585938 C 97.9375 151.257812 97.574219 151.09375 96.851562 151.09375 L 94.015625 151.09375 C 94.925781 147.453125 95.382812 145.566406 95.382812 145.425781 C 95.382812 144.703125 95.007812 144.339844 94.261719 144.339844 C 93.46875 144.339844 92.964844 144.796875 92.757812 145.703125 L 91.460938 151.09375 L 88.347656 151.09375 C 87.566406 151.09375 87.191406 151.121094 87.191406 151.863281 C 87.191406 152.238281 87.554688 152.425781 88.277344 152.425781 L 91.113281 152.425781 C 89.40625 159.238281 88.554688 162.867188 88.554688 163.308594 C 88.554688 165.261719 89.894531 166.636719 91.847656 166.636719 C 93.175781 166.636719 94.34375 166.027344 95.347656 164.816406 C 96.1875 163.8125 96.792969 162.832031 97.167969 161.875 C 97.304688 161.5 97.375 161.269531 97.375 161.175781 C 97.375 160.847656 97.203125 160.683594 96.851562 160.683594 C 96.570312 160.683594 96.363281 160.871094 96.222656 161.246094 C 95.03125 164.136719 93.585938 165.585938 91.882812 165.585938 C 91.273438 165.585938 90.972656 165.105469 90.972656 164.148438 C 90.972656 163.613281 91.042969 163.066406 91.179688 162.503906 L 93.667969 152.425781 L 96.78125 152.425781 C 97.6875 152.425781 97.9375 152.34375 97.9375 151.585938 Z M 97.9375 151.585938 "/>
<path fill-rule="nonzero" fill="rgb(0%, 0%, 0%)" fill-opacity="1" d="M 101.75 174.824219 C 103.851562 173.214844 105.613281 170.824219 107.035156 167.648438 C 108.414062 164.617188 109.101562 161.722656 109.101562 158.96875 L 109.101562 156.03125 C 109.101562 153.277344 108.414062 150.382812 107.035156 147.351562 C 105.613281 144.175781 103.851562 141.785156 101.75 140.175781 C 101.632812 140.105469 101.554688 140.070312 101.507812 140.070312 C 101.179688 140.070312 101.015625 140.234375 101.015625 140.558594 C 101.015625 140.699219 101.074219 140.828125 101.191406 140.945312 C 103.011719 142.34375 104.46875 144.644531 105.566406 147.839844 C 106.523438 150.617188 107 153.347656 107 156.03125 L 107 158.96875 C 107 161.652344 106.523438 164.382812 105.566406 167.160156 C 104.46875 170.355469 103.011719 172.65625 101.191406 174.054688 C 101.074219 174.195312 101.015625 174.324219 101.015625 174.441406 C 101.015625 174.765625 101.179688 174.929688 101.507812 174.929688 C 101.554688 174.929688 101.632812 174.894531 101.75 174.824219 Z M 101.75 174.824219 "/>
<path fill-rule="nonzero" fill="rgb(0%, 0%, 0%)" fill-opacity="1" d="M 146.789062 153.40625 L 125.160156 153.40625 C 124.597656 153.40625 124.320312 153.671875 124.320312 154.210938 C 124.320312 154.746094 124.597656 155.015625 125.160156 155.015625 L 146.789062 155.015625 C 147.347656 155.015625 147.628906 154.746094 147.628906 154.210938 C 147.628906 153.777344 147.234375 153.40625 146.789062 153.40625 Z M 146.789062 159.984375 L 125.160156 159.984375 C 124.597656 159.984375 124.320312 160.253906 124.320312 160.789062 C 124.320312 161.328125 124.597656 161.59375 125.160156 161.59375 L 146.789062 161.59375 C 147.347656 161.59375 147.628906 161.328125 147.628906 160.789062 C 147.628906 160.324219 147.25 159.984375 146.789062 159.984375 Z M 146.789062 159.984375 "/>
<path fill-rule="nonzero" fill="rgb(0%, 0%, 0%)" fill-opacity="1" d="M 167.464844 173.320312 L 164.875 173.320312 L 164.875 141.679688 L 167.464844 141.679688 C 168.003906 141.679688 168.269531 141.398438 168.269531 140.839844 C 168.269531 140.28125 168.003906 140 167.464844 140 L 163.300781 140 L 163.300781 175 L 167.464844 175 C 168.003906 175 168.269531 174.71875 168.269531 174.160156 C 168.269531 173.746094 167.882812 173.320312 167.464844 173.320312 Z M 167.464844 173.320312 "/>
<path fill-rule="nonzero" fill="rgb(0%, 0%, 0%)" fill-opacity="1" d="M 181.605469 142.554688 C 181.277344 142.554688 181.011719 142.71875 180.800781 143.046875 L 170.230469 159.285156 L 170.230469 160.546875 L 179.367188 160.546875 L 179.367188 163.414062 C 179.367188 164.046875 179.242188 164.449219 179 164.621094 C 178.753906 164.796875 178.058594 164.886719 176.914062 164.886719 L 176.039062 164.886719 L 176.039062 166.25 C 177.066406 166.179688 178.664062 166.144531 180.835938 166.144531 C 183.003906 166.144531 184.605469 166.179688 185.628906 166.25 L 185.628906 164.886719 L 184.753906 164.886719 C 183.613281 164.886719 182.917969 164.796875 182.671875 164.621094 C 182.429688 164.449219 182.304688 164.046875 182.304688 163.414062 L 182.304688 160.546875 L 185.734375 160.546875 L 185.734375 159.179688 L 182.304688 159.179688 L 182.304688 143.148438 C 182.304688 142.792969 182.066406 142.554688 181.605469 142.554688 Z M 179.574219 146.894531 L 179.574219 159.179688 L 171.597656 159.179688 Z M 179.574219 146.894531 "/>
<path fill-rule="nonzero" fill="rgb(0%, 0%, 0%)" fill-opacity="1" d="M 201.371094 151.691406 C 202.839844 151.691406 203.960938 152.039062 204.730469 152.738281 C 203.882812 152.859375 203.292969 153.621094 203.292969 154.421875 C 203.292969 155.5625 203.867188 156.136719 205.007812 156.136719 C 206.152344 156.136719 206.722656 155.550781 206.722656 154.386719 C 206.722656 151.910156 204.019531 150.570312 201.335938 150.570312 C 199.164062 150.570312 197.363281 151.371094 195.925781 152.96875 C 194.492188 154.566406 193.773438 156.472656 193.773438 158.691406 C 193.773438 160.835938 194.492188 162.699219 195.925781 164.273438 C 197.363281 165.847656 199.140625 166.636719 201.265625 166.636719 C 203.015625 166.636719 204.378906 166.132812 205.359375 165.128906 C 206.152344 164.335938 206.6875 163.519531 206.96875 162.679688 C 207.0625 162.375 207.109375 162.15625 207.109375 162.015625 C 207.109375 161.710938 206.910156 161.558594 206.515625 161.558594 C 206.234375 161.558594 206.046875 161.699219 205.953125 161.980469 C 205.230469 164.335938 203.773438 165.515625 201.578125 165.515625 C 200.574219 165.515625 199.585938 165.046875 198.605469 164.113281 C 197.460938 163.042969 196.890625 161.210938 196.890625 158.621094 C 196.890625 155.121094 198.226562 151.691406 201.371094 151.691406 Z M 201.371094 151.691406 "/>
<path fill-rule="nonzero" fill="rgb(0%, 0%, 0%)" fill-opacity="1" d="M 216.839844 166.636719 C 219.007812 166.636719 220.847656 165.863281 222.351562 164.324219 C 223.855469 162.785156 224.609375 160.929688 224.609375 158.761719 C 224.609375 156.542969 223.867188 154.625 222.386719 153.003906 C 220.90625 151.378906 219.066406 150.570312 216.875 150.570312 C 214.679688 150.570312 212.835938 151.378906 211.34375 153.003906 C 209.851562 154.625 209.105469 156.542969 209.105469 158.761719 C 209.105469 160.929688 209.855469 162.785156 211.363281 164.324219 C 212.867188 165.863281 214.691406 166.636719 216.839844 166.636719 Z M 216.875 165.515625 C 215.195312 165.515625 213.921875 164.769531 213.058594 163.273438 C 212.5 162.296875 212.21875 160.695312 212.21875 158.480469 C 212.21875 156.355469 212.488281 154.804688 213.023438 153.824219 C 213.863281 152.332031 215.136719 151.585938 216.839844 151.585938 C 218.472656 151.585938 219.734375 152.308594 220.621094 153.753906 C 221.203125 154.734375 221.496094 156.308594 221.496094 158.480469 C 221.496094 162.523438 220.289062 165.515625 216.875 165.515625 Z M 216.875 165.515625 "/>
<path fill-rule="nonzero" fill="rgb(0%, 0%, 0%)" fill-opacity="1" d="M 238.222656 161.699219 C 238.222656 159.039062 236.414062 157.359375 232.800781 156.660156 C 231.164062 156.332031 230.074219 155.972656 229.527344 155.574219 C 228.976562 155.179688 228.703125 154.640625 228.703125 153.964844 C 228.703125 152.332031 229.929688 151.515625 232.378906 151.515625 C 234.757812 151.515625 236.042969 152.855469 236.230469 155.539062 C 236.253906 155.820312 236.4375 155.960938 236.789062 155.960938 C 237.1875 155.960938 237.382812 155.644531 237.382812 155.015625 L 237.382812 151.550781 C 237.382812 150.898438 237.210938 150.570312 236.859375 150.570312 C 236.476562 150.570312 235.964844 151.195312 235.597656 151.480469 C 234.710938 150.875 233.640625 150.570312 232.378906 150.570312 C 229.25 150.570312 226.777344 151.980469 226.777344 154.945312 C 226.777344 156.136719 227.28125 157.136719 228.285156 157.953125 C 229.515625 158.984375 230.667969 159.167969 232.871094 159.566406 C 235.15625 160.007812 236.300781 161.023438 236.300781 162.609375 C 236.300781 164.617188 235.0625 165.621094 232.589844 165.621094 C 230.1875 165.621094 228.644531 164.023438 227.96875 160.824219 C 227.875 160.359375 227.675781 160.125 227.375 160.125 C 226.976562 160.125 226.777344 160.464844 226.777344 161.140625 L 226.777344 165.65625 C 226.777344 166.308594 226.953125 166.636719 227.304688 166.636719 C 227.398438 166.636719 227.578125 166.519531 227.847656 166.285156 C 228.480469 165.734375 228.207031 165.839844 228.84375 165.199219 C 229.871094 166.15625 231.121094 166.636719 232.589844 166.636719 C 235.910156 166.636719 238.222656 164.910156 238.222656 161.699219 Z M 238.222656 161.699219 "/>
<path fill-rule="nonzero" fill="rgb(0%, 0%, 0%)" fill-opacity="1" d="M 250.542969 174.929688 C 250.871094 174.929688 251.035156 174.765625 251.035156 174.441406 C 251.035156 174.324219 250.976562 174.195312 250.859375 174.054688 C 249.039062 172.65625 247.582031 170.355469 246.484375 167.160156 C 245.527344 164.382812 245.050781 161.652344 245.050781 158.96875 L 245.050781 156.03125 C 245.050781 153.347656 245.527344 150.617188 246.484375 147.839844 C 247.582031 144.644531 249.039062 142.34375 250.859375 140.945312 C 250.976562 140.828125 251.035156 140.699219 251.035156 140.558594 C 251.035156 140.234375 250.871094 140.070312 250.542969 140.070312 C 250.496094 140.070312 250.414062 140.105469 250.300781 140.175781 C 248.199219 141.785156 246.4375 144.175781 245.015625 147.351562 C 243.636719 150.382812 242.949219 153.277344 242.949219 156.03125 L 242.949219 158.96875 C 242.949219 161.722656 243.636719 164.617188 245.015625 167.648438 C 246.4375 170.824219 248.199219 173.214844 250.300781 174.824219 C 250.414062 174.894531 250.496094 174.929688 250.542969 174.929688 Z M 250.542969 174.929688 "/>
<path fill-rule="nonzero" fill="rgb(0%, 0%, 0%)" fill-opacity="1" d="M 264.578125 151.585938 C 264.578125 151.257812 264.21875 151.09375 263.496094 151.09375 L 260.660156 151.09375 C 261.570312 147.453125 262.023438 145.566406 262.023438 145.425781 C 262.023438 144.703125 261.652344 144.339844 260.902344 144.339844 C 260.109375 144.339844 259.609375 144.796875 259.398438 145.703125 L 258.105469 151.09375 L 254.988281 151.09375 C 254.207031 151.09375 253.835938 151.121094 253.835938 151.863281 C 253.835938 152.238281 254.195312 152.425781 254.917969 152.425781 L 257.753906 152.425781 C 256.050781 159.238281 255.199219 162.867188 255.199219 163.308594 C 255.199219 165.261719 256.539062 166.636719 258.488281 166.636719 C 259.820312 166.636719 260.984375 166.027344 261.988281 164.816406 C 262.828125 163.8125 263.4375 162.832031 263.808594 161.875 C 263.949219 161.5 264.019531 161.269531 264.019531 161.175781 C 264.019531 160.847656 263.84375 160.683594 263.496094 160.683594 C 263.214844 160.683594 263.003906 160.871094 262.863281 161.246094 C 261.675781 164.136719 260.226562 165.585938 258.523438 165.585938 C 257.917969 165.585938 257.613281 165.105469 257.613281 164.148438 C 257.613281 163.613281 257.683594 163.066406 257.824219 162.503906 L 260.308594 152.425781 L 263.425781 152.425781 C 264.328125 152.425781 264.578125 152.34375 264.578125 151.585938 Z M 264.578125 151.585938 "/>
<path fill-rule="nonzero" fill="rgb(0%, 0%, 0%)" fill-opacity="1" d="M 268.394531 174.824219 C 270.496094 173.214844 272.253906 170.824219 273.679688 167.648438 C 275.054688 164.617188 275.746094 161.722656 275.746094 158.96875 L 275.746094 156.03125 C 275.746094 153.277344 275.054688 150.382812 273.679688 147.351562 C 272.253906 144.175781 270.496094 141.785156 268.394531 140.175781 C 268.277344 140.105469 268.195312 140.070312 268.148438 140.070312 C 267.824219 140.070312 267.660156 140.234375 267.660156 140.558594 C 267.660156 140.699219 267.71875 140.828125 267.835938 140.945312 C 269.652344 142.34375 271.113281 144.644531 272.210938 147.839844 C 273.164062 150.617188 273.644531 153.347656 273.644531 156.03125 L 273.644531 158.96875 C 273.644531 161.652344 273.164062 164.382812 272.210938 167.160156 C 271.113281 170.355469 269.652344 172.65625 267.835938 174.054688 C 267.71875 174.195312 267.660156 174.324219 267.660156 174.441406 C 267.660156 174.765625 267.824219 174.929688 268.148438 174.929688 C 268.195312 174.929688 268.277344 174.894531 268.394531 174.824219 Z M 268.394531 174.824219 "/>
<path fill-rule="nonzero" fill="rgb(0%, 0%, 0%)" fill-opacity="1" d="M 311.488281 156.660156 L 301.511719 156.660156 L 301.511719 146.683594 C 301.511719 146.125 301.230469 145.84375 300.671875 145.84375 C 300.113281 145.84375 299.832031 146.125 299.832031 146.683594 L 299.832031 156.660156 L 289.855469 156.660156 C 289.296875 156.660156 289.015625 156.941406 289.015625 157.5 C 289.015625 158.058594 289.296875 158.339844 289.855469 158.339844 L 299.832031 158.339844 L 299.832031 168.316406 C 299.832031 168.875 300.113281 169.15625 300.671875 169.15625 C 301.230469 169.15625 301.511719 168.875 301.511719 168.316406 L 301.511719 158.339844 L 311.488281 158.339844 C 312.046875 158.339844 312.328125 158.058594 312.328125 157.5 C 312.328125 157.035156 311.949219 156.660156 311.488281 156.660156 Z M 311.488281 156.660156 "/>
<path fill-rule="nonzero" fill="rgb(0%, 0%, 0%)" fill-opacity="1" d="M 330.359375 142.941406 C 328.585938 142.941406 327.050781 143.5625 325.757812 144.8125 C 324.460938 146.0625 323.816406 147.570312 323.816406 149.34375 C 323.816406 150.539062 324.695312 151.410156 325.773438 151.410156 C 326.839844 151.410156 327.699219 150.515625 327.699219 149.449219 C 327.699219 148.308594 326.871094 147.488281 325.738281 147.488281 C 325.644531 147.488281 325.566406 147.5 325.496094 147.523438 C 326.144531 145.820312 327.699219 144.304688 329.90625 144.304688 C 332.773438 144.304688 334.382812 146.785156 334.382812 149.800781 C 334.382812 152.15625 333.195312 154.664062 330.816406 157.324219 L 324.234375 164.746094 C 323.769531 165.261719 323.816406 165.226562 323.816406 166.25 L 336.800781 166.25 L 337.816406 159.949219 L 336.660156 159.949219 C 336.378906 161.722656 336.132812 162.761719 335.925781 163.066406 C 335.761719 163.226562 334.710938 163.308594 332.773438 163.308594 L 326.929688 163.308594 L 330.324219 159.984375 C 332.710938 157.757812 335.707031 155.324219 336.730469 153.476562 C 337.429688 152.261719 337.78125 151.035156 337.78125 149.800781 C 337.78125 145.664062 334.5625 142.941406 330.359375 142.941406 Z M 330.359375 142.941406 "/>
<path fill-rule="nonzero" fill="rgb(0%, 0%, 0%)" fill-opacity="1" d="M 354.183594 151.691406 C 355.652344 151.691406 356.773438 152.039062 357.542969 152.738281 C 356.699219 152.859375 356.109375 153.621094 356.109375 154.421875 C 356.109375 155.5625 356.679688 156.136719 357.824219 156.136719 C 358.964844 156.136719 359.539062 155.550781 359.539062 154.386719 C 359.539062 151.910156 356.835938 150.570312 354.148438 150.570312 C 351.976562 150.570312 350.175781 151.371094 348.742188 152.96875 C 347.304688 154.566406 346.589844 156.472656 346.589844 158.691406 C 346.589844 160.835938 347.304688 162.699219 348.742188 164.273438 C 350.175781 165.847656 351.953125 166.636719 354.078125 166.636719 C 355.828125 166.636719 357.191406 166.132812 358.171875 165.128906 C 358.964844 164.335938 359.503906 163.519531 359.78125 162.679688 C 359.875 162.375 359.921875 162.15625 359.921875 162.015625 C 359.921875 161.710938 359.726562 161.558594 359.328125 161.558594 C 359.046875 161.558594 358.863281 161.699219 358.769531 161.980469 C 358.042969 164.335938 356.585938 165.515625 354.394531 165.515625 C 353.390625 165.515625 352.398438 165.046875 351.417969 164.113281 C 350.273438 163.042969 349.703125 161.210938 349.703125 158.621094 C 349.703125 155.121094 351.039062 151.691406 354.183594 151.691406 Z M 354.183594 151.691406 "/>
<path fill-rule="nonzero" fill="rgb(0%, 0%, 0%)" fill-opacity="1" d="M 369.652344 166.636719 C 371.824219 166.636719 373.660156 165.863281 375.164062 164.324219 C 376.671875 162.785156 377.421875 160.929688 377.421875 158.761719 C 377.421875 156.542969 376.683594 154.625 375.199219 153.003906 C 373.71875 151.378906 371.882812 150.570312 369.6875 150.570312 C 367.496094 150.570312 365.652344 151.378906 364.15625 153.003906 C 362.664062 154.625 361.917969 156.542969 361.917969 158.761719 C 361.917969 160.929688 362.671875 162.785156 364.175781 164.324219 C 365.679688 165.863281 367.507812 166.636719 369.652344 166.636719 Z M 369.6875 165.515625 C 368.007812 165.515625 366.738281 164.769531 365.875 163.273438 C 365.3125 162.296875 365.03125 160.695312 365.03125 158.480469 C 365.03125 156.355469 365.300781 154.804688 365.839844 153.824219 C 366.679688 152.332031 367.949219 151.585938 369.652344 151.585938 C 371.285156 151.585938 372.546875 152.308594 373.433594 153.753906 C 374.015625 154.734375 374.308594 156.308594 374.308594 158.480469 C 374.308594 162.523438 373.101562 165.515625 369.6875 165.515625 Z M 369.6875 165.515625 "/>
<path fill-rule="nonzero" fill="rgb(0%, 0%, 0%)" fill-opacity="1" d="M 391.039062 161.699219 C 391.039062 159.039062 389.230469 157.359375 385.613281 156.660156 C 383.980469 156.332031 382.890625 155.972656 382.339844 155.574219 C 381.792969 155.179688 381.519531 154.640625 381.519531 153.964844 C 381.519531 152.332031 382.742188 151.515625 385.191406 151.515625 C 387.574219 151.515625 388.855469 152.855469 389.042969 155.539062 C 389.066406 155.820312 389.253906 155.960938 389.601562 155.960938 C 390 155.960938 390.199219 155.644531 390.199219 155.015625 L 390.199219 151.550781 C 390.199219 150.898438 390.023438 150.570312 389.671875 150.570312 C 389.292969 150.570312 388.777344 151.195312 388.414062 151.480469 C 387.527344 150.875 386.453125 150.570312 385.191406 150.570312 C 382.066406 150.570312 379.59375 151.980469 379.59375 154.945312 C 379.59375 156.136719 380.09375 157.136719 381.097656 157.953125 C 382.332031 158.984375 383.480469 159.167969 385.683594 159.566406 C 387.96875 160.007812 389.113281 161.023438 389.113281 162.609375 C 389.113281 164.617188 387.875 165.621094 385.402344 165.621094 C 383 165.621094 381.460938 164.023438 380.78125 160.824219 C 380.691406 160.359375 380.492188 160.125 380.1875 160.125 C 379.792969 160.125 379.59375 160.464844 379.59375 161.140625 L 379.59375 165.65625 C 379.59375 166.308594 379.769531 166.636719 380.117188 166.636719 C 380.210938 166.636719 380.390625 166.519531 380.660156 166.285156 C 381.296875 165.734375 381.019531 165.839844 381.65625 165.199219 C 382.683594 166.15625 383.933594 166.636719 385.402344 166.636719 C 388.722656 166.636719 391.039062 164.910156 391.039062 161.699219 Z M 391.039062 161.699219 "/>
<path fill-rule="nonzero" fill="rgb(0%, 0%, 0%)" fill-opacity="1" d="M 403.359375 174.929688 C 403.683594 174.929688 403.847656 174.765625 403.847656 174.441406 C 403.847656 174.324219 403.789062 174.195312 403.671875 174.054688 C 401.851562 172.65625 400.394531 170.355469 399.296875 167.160156 C 398.339844 164.382812 397.863281 161.652344 397.863281 158.96875 L 397.863281 156.03125 C 397.863281 153.347656 398.339844 150.617188 399.296875 147.839844 C 400.394531 144.644531 401.851562 142.34375 403.671875 140.945312 C 403.789062 140.828125 403.847656 140.699219 403.847656 140.558594 C 403.847656 140.234375 403.683594 140.070312 403.359375 140.070312 C 403.3125 140.070312 403.230469 140.105469 403.113281 140.175781 C 401.011719 141.785156 399.25 144.175781 397.828125 147.351562 C 396.453125 150.382812 395.761719 153.277344 395.761719 156.03125 L 395.761719 158.96875 C 395.761719 161.722656 396.453125 164.617188 397.828125 167.648438 C 399.25 170.824219 401.011719 173.214844 403.113281 174.824219 C 403.230469 174.894531 403.3125 174.929688 403.359375 174.929688 Z M 403.359375 174.929688 "/>
<path fill-rule="nonzero" fill="rgb(0%, 0%, 0%)" fill-opacity="1" d="M 409.972656 155.226562 C 410.160156 155.226562 410.347656 155.097656 410.53125 154.839844 C 411.582031 153.277344 413.019531 152.496094 414.839844 152.496094 C 416.074219 152.496094 417.007812 153.207031 417.636719 154.628906 C 418.035156 155.5625 418.234375 157 418.234375 158.933594 C 418.234375 161.128906 417.964844 162.679688 417.429688 163.589844 C 416.566406 165.035156 415.375 165.761719 413.859375 165.761719 C 411.511719 165.761719 409.652344 164.054688 409.027344 162.226562 C 409.144531 162.25 409.273438 162.261719 409.414062 162.261719 C 410.480469 162.261719 411.269531 161.472656 411.269531 160.40625 C 411.269531 159.335938 410.480469 158.585938 409.414062 158.585938 C 408.199219 158.585938 407.59375 159.238281 407.59375 160.546875 C 407.59375 164.042969 410.4375 167.019531 413.929688 167.019531 C 416.074219 167.019531 417.882812 166.25 419.351562 164.710938 C 420.824219 163.171875 421.558594 161.328125 421.558594 159.179688 C 421.558594 157.148438 420.964844 155.386719 419.773438 153.894531 C 418.488281 152.261719 416.867188 151.445312 414.90625 151.445312 C 413.25 151.445312 411.839844 151.96875 410.671875 153.019531 L 410.671875 146.789062 C 411.605469 147.070312 412.539062 147.210938 413.472656 147.210938 C 415.082031 147.210938 416.484375 146.8125 417.671875 146.019531 C 418.746094 145.34375 419.492188 144.691406 419.914062 144.058594 C 420.125 143.78125 420.226562 143.582031 420.226562 143.464844 C 420.226562 143.113281 420.054688 142.941406 419.703125 142.941406 C 417.765625 143.6875 416.132812 144.058594 414.804688 144.058594 C 413.238281 144.058594 411.734375 143.734375 410.289062 143.078125 C 410.125 143.011719 409.972656 142.976562 409.832031 142.976562 C 409.507812 142.976562 409.34375 143.300781 409.34375 143.953125 L 409.34375 154.175781 C 409.34375 154.902344 409.335938 155.226562 409.972656 155.226562 Z M 409.972656 155.226562 "/>
<path fill-rule="nonzero" fill="rgb(0%, 0%, 0%)" fill-opacity="1" d="M 434.894531 151.585938 C 434.894531 151.257812 434.53125 151.09375 433.808594 151.09375 L 430.972656 151.09375 C 431.882812 147.453125 432.339844 145.566406 432.339844 145.425781 C 432.339844 144.703125 431.964844 144.339844 431.21875 144.339844 C 430.425781 144.339844 429.921875 144.796875 429.714844 145.703125 L 428.417969 151.09375 L 425.304688 151.09375 C 424.523438 151.09375 424.148438 151.121094 424.148438 151.863281 C 424.148438 152.238281 424.507812 152.425781 425.234375 152.425781 L 428.066406 152.425781 C 426.363281 159.238281 425.511719 162.867188 425.511719 163.308594 C 425.511719 165.261719 426.851562 166.636719 428.804688 166.636719 C 430.132812 166.636719 431.300781 166.027344 432.304688 164.816406 C 433.144531 163.8125 433.75 162.832031 434.125 161.875 C 434.261719 161.5 434.332031 161.269531 434.332031 161.175781 C 434.332031 160.847656 434.15625 160.683594 433.808594 160.683594 C 433.527344 160.683594 433.316406 160.871094 433.179688 161.246094 C 431.988281 164.136719 430.542969 165.585938 428.839844 165.585938 C 428.230469 165.585938 427.929688 165.105469 427.929688 164.148438 C 427.929688 163.613281 428 163.066406 428.136719 162.503906 L 430.625 152.425781 L 433.738281 152.425781 C 434.644531 152.425781 434.894531 152.34375 434.894531 151.585938 Z M 434.894531 151.585938 "/>
<path fill-rule="nonzero" fill="rgb(0%, 0%, 0%)" fill-opacity="1" d="M 438.707031 174.824219 C 440.808594 173.214844 442.570312 170.824219 443.992188 167.648438 C 445.371094 164.617188 446.058594 161.722656 446.058594 158.96875 L 446.058594 156.03125 C 446.058594 153.277344 445.371094 150.382812 443.992188 147.351562 C 442.570312 144.175781 440.808594 141.785156 438.707031 140.175781 C 438.589844 140.105469 438.507812 140.070312 438.464844 140.070312 C 438.136719 140.070312 437.972656 140.234375 437.972656 140.558594 C 437.972656 140.699219 438.03125 140.828125 438.148438 140.945312 C 439.96875 142.34375 441.425781 144.644531 442.523438 147.839844 C 443.480469 150.617188 443.957031 153.347656 443.957031 156.03125 L 443.957031 158.96875 C 443.957031 161.652344 443.480469 164.382812 442.523438 167.160156 C 441.425781 170.355469 439.96875 172.65625 438.148438 174.054688 C 438.03125 174.195312 437.972656 174.324219 437.972656 174.441406 C 437.972656 174.765625 438.136719 174.929688 438.464844 174.929688 C 438.507812 174.929688 438.589844 174.894531 438.707031 174.824219 Z M 438.707031 174.824219 "/>
<path fill-rule="nonzero" fill="rgb(0%, 0%, 0%)" fill-opacity="1" d="M 454.457031 162.539062 C 453.355469 162.539062 452.601562 163.375 452.601562 164.5 C 452.601562 165.566406 453.390625 166.425781 454.457031 166.425781 C 454.949219 166.425781 455.355469 166.273438 455.683594 165.96875 L 455.71875 166.25 C 455.71875 168.464844 454.984375 170.332031 453.511719 171.851562 C 453.257812 172.128906 453.128906 172.339844 453.128906 172.480469 C 453.128906 172.828125 453.28125 173.003906 453.582031 173.003906 C 453.886719 173.003906 454.328125 172.597656 454.914062 171.78125 C 456.101562 170.101562 456.699219 168.257812 456.699219 166.25 C 456.699219 164.402344 456.078125 162.539062 454.457031 162.539062 Z M 454.457031 162.539062 "/>
<path fill-rule="nonzero" fill="rgb(0%, 0%, 0%)" fill-opacity="1" d="M 477.511719 142.554688 C 477.183594 142.554688 476.917969 142.71875 476.707031 143.046875 L 466.136719 159.285156 L 466.136719 160.546875 L 475.269531 160.546875 L 475.269531 163.414062 C 475.269531 164.046875 475.148438 164.449219 474.902344 164.621094 C 474.660156 164.796875 473.964844 164.886719 472.820312 164.886719 L 471.945312 164.886719 L 471.945312 166.25 C 472.972656 166.179688 474.570312 166.144531 476.742188 166.144531 C 478.910156 166.144531 480.507812 166.179688 481.535156 166.25 L 481.535156 164.886719 L 480.660156 164.886719 C 479.519531 164.886719 478.824219 164.796875 478.578125 164.621094 C 478.332031 164.449219 478.210938 164.046875 478.210938 163.414062 L 478.210938 160.546875 L 481.640625 160.546875 L 481.640625 159.179688 L 478.210938 159.179688 L 478.210938 143.148438 C 478.210938 142.792969 477.96875 142.554688 477.511719 142.554688 Z M 475.480469 146.894531 L 475.480469 159.179688 L 467.5 159.179688 Z M 475.480469 146.894531 "/>
<path fill-rule="nonzero" fill="rgb(0%, 0%, 0%)" fill-opacity="1" d="M 501.089844 161.699219 C 501.089844 159.039062 499.28125 157.359375 495.664062 156.660156 C 494.03125 156.332031 492.941406 155.972656 492.390625 155.574219 C 491.84375 155.179688 491.570312 154.640625 491.570312 153.964844 C 491.570312 152.332031 492.792969 151.515625 495.246094 151.515625 C 497.625 151.515625 498.90625 152.855469 499.09375 155.539062 C 499.117188 155.820312 499.304688 155.960938 499.65625 155.960938 C 500.050781 155.960938 500.25 155.644531 500.25 155.015625 L 500.25 151.550781 C 500.25 150.898438 500.074219 150.570312 499.726562 150.570312 C 499.34375 150.570312 498.828125 151.195312 498.464844 151.480469 C 497.578125 150.875 496.503906 150.570312 495.246094 150.570312 C 492.117188 150.570312 489.644531 151.980469 489.644531 154.945312 C 489.644531 156.136719 490.144531 157.136719 491.148438 157.953125 C 492.382812 158.984375 493.53125 159.167969 495.734375 159.566406 C 498.019531 160.007812 499.164062 161.023438 499.164062 162.609375 C 499.164062 164.617188 497.929688 165.621094 495.453125 165.621094 C 493.050781 165.621094 491.511719 164.023438 490.835938 160.824219 C 490.742188 160.359375 490.542969 160.125 490.238281 160.125 C 489.84375 160.125 489.644531 160.464844 489.644531 161.140625 L 489.644531 165.65625 C 489.644531 166.308594 489.820312 166.636719 490.167969 166.636719 C 490.261719 166.636719 490.445312 166.519531 490.710938 166.285156 C 491.347656 165.734375 491.070312 165.839844 491.710938 165.199219 C 492.738281 166.15625 493.984375 166.636719 495.453125 166.636719 C 498.777344 166.636719 501.089844 164.910156 501.089844 161.699219 Z M 501.089844 161.699219 "/>
<path fill-rule="nonzero" fill="rgb(0%, 0%, 0%)" fill-opacity="1" d="M 509.070312 145.214844 C 509.070312 144.152344 508.210938 143.253906 507.144531 143.253906 C 506.082031 143.253906 505.183594 144.152344 505.183594 145.214844 C 505.183594 146.257812 506.074219 147.210938 507.109375 147.210938 C 508.191406 147.210938 509.070312 146.308594 509.070312 145.214844 Z M 507.285156 166.144531 L 510.925781 166.25 L 510.925781 164.886719 C 509.757812 164.886719 509.074219 164.816406 508.878906 164.675781 C 508.679688 164.535156 508.578125 164.148438 508.578125 163.519531 L 508.578125 150.675781 L 503.574219 151.09375 L 503.574219 152.425781 C 504.742188 152.425781 505.445312 152.519531 505.691406 152.703125 C 505.9375 152.890625 506.058594 153.382812 506.058594 154.175781 L 506.058594 163.484375 C 506.058594 164.160156 505.9375 164.5625 505.691406 164.691406 C 505.445312 164.820312 504.695312 164.886719 503.433594 164.886719 L 503.433594 166.25 Z M 507.285156 166.144531 "/>
<path fill-rule="nonzero" fill="rgb(0%, 0%, 0%)" fill-opacity="1" d="M 523 151.796875 C 524.585938 151.796875 525.378906 153.03125 525.378906 155.503906 L 525.378906 163.484375 C 525.378906 164.160156 525.257812 164.570312 525.011719 164.710938 C 524.765625 164.851562 524.003906 164.921875 522.71875 164.921875 L 522.71875 166.25 L 526.746094 166.144531 L 530.734375 166.25 L 530.734375 164.921875 C 529.613281 164.921875 528.886719 164.875 528.546875 164.78125 C 528.207031 164.6875 528.039062 164.429688 528.039062 164.011719 L 528.039062 157.464844 C 528.039062 155.808594 527.992188 154.652344 527.898438 154 C 527.550781 151.851562 525.988281 150.78125 523.210938 150.78125 C 521.015625 150.78125 519.371094 151.828125 518.273438 153.929688 L 518.273438 150.78125 L 513.128906 151.164062 L 513.128906 152.496094 C 514.390625 152.496094 515.152344 152.59375 515.421875 152.792969 C 515.691406 152.992188 515.824219 153.488281 515.824219 154.28125 L 515.824219 163.484375 C 515.824219 164.160156 515.695312 164.570312 515.441406 164.710938 C 515.183594 164.851562 514.414062 164.921875 513.128906 164.921875 L 513.128906 166.25 L 517.15625 166.144531 L 521.144531 166.25 L 521.144531 164.921875 C 519.863281 164.921875 519.097656 164.851562 518.851562 164.710938 C 518.605469 164.570312 518.484375 164.160156 518.484375 163.484375 L 518.484375 157.183594 C 518.484375 154.367188 520.28125 151.796875 523 151.796875 Z M 523 151.796875 "/>
<path fill-rule="nonzero" fill="rgb(0%, 0%, 0%)" fill-opacity="1" d="M 542.601562 174.929688 C 542.925781 174.929688 543.089844 174.765625 543.089844 174.441406 C 543.089844 174.324219 543.03125 174.195312 542.914062 174.054688 C 541.09375 172.65625 539.636719 170.355469 538.539062 167.160156 C 537.582031 164.382812 537.105469 161.652344 537.105469 158.96875 L 537.105469 156.03125 C 537.105469 153.347656 537.582031 150.617188 538.539062 147.839844 C 539.636719 144.644531 541.09375 142.34375 542.914062 140.945312 C 543.03125 140.828125 543.089844 140.699219 543.089844 140.558594 C 543.089844 140.234375 542.925781 140.070312 542.601562 140.070312 C 542.554688 140.070312 542.472656 140.105469 542.355469 140.175781 C 540.253906 141.785156 538.492188 144.175781 537.070312 147.351562 C 535.691406 150.382812 535.003906 153.277344 535.003906 156.03125 L 535.003906 158.96875 C 535.003906 161.722656 535.691406 164.617188 537.070312 167.648438 C 538.492188 170.824219 540.253906 173.214844 542.355469 174.824219 C 542.472656 174.894531 542.554688 174.929688 542.601562 174.929688 Z M 542.601562 174.929688 "/>
<path fill-rule="nonzero" fill="rgb(0%, 0%, 0%)" fill-opacity="1" d="M 556.632812 151.585938 C 556.632812 151.257812 556.273438 151.09375 555.550781 151.09375 L 552.714844 151.09375 C 553.625 147.453125 554.078125 145.566406 554.078125 145.425781 C 554.078125 144.703125 553.707031 144.339844 552.960938 144.339844 C 552.167969 144.339844 551.664062 144.796875 551.453125 145.703125 L 550.160156 151.09375 L 547.042969 151.09375 C 546.265625 151.09375 545.890625 151.121094 545.890625 151.863281 C 545.890625 152.238281 546.25 152.425781 546.976562 152.425781 L 549.808594 152.425781 C 548.105469 159.238281 547.253906 162.867188 547.253906 163.308594 C 547.253906 165.261719 548.59375 166.636719 550.542969 166.636719 C 551.875 166.636719 553.042969 166.027344 554.042969 164.816406 C 554.882812 163.8125 555.492188 162.832031 555.863281 161.875 C 556.003906 161.5 556.074219 161.269531 556.074219 161.175781 C 556.074219 160.847656 555.898438 160.683594 555.550781 160.683594 C 555.269531 160.683594 555.058594 160.871094 554.917969 161.246094 C 553.730469 164.136719 552.28125 165.585938 550.578125 165.585938 C 549.972656 165.585938 549.667969 165.105469 549.667969 164.148438 C 549.667969 163.613281 549.738281 163.066406 549.878906 162.503906 L 552.363281 152.425781 L 555.480469 152.425781 C 556.386719 152.425781 556.632812 152.34375 556.632812 151.585938 Z M 556.632812 151.585938 "/>
<path fill-rule="nonzero" fill="rgb(0%, 0%, 0%)" fill-opacity="1" d="M 560.449219 174.824219 C 562.550781 173.214844 564.3125 170.824219 565.734375 167.648438 C 567.113281 164.617188 567.800781 161.722656 567.800781 158.96875 L 567.800781 156.03125 C 567.800781 153.277344 567.113281 150.382812 565.734375 147.351562 C 564.3125 144.175781 562.550781 141.785156 560.449219 140.175781 C 560.332031 140.105469 560.25 140.070312 560.203125 140.070312 C 559.878906 140.070312 559.714844 140.234375 559.714844 140.558594 C 559.714844 140.699219 559.773438 140.828125 559.890625 140.945312 C 561.710938 142.34375 563.167969 144.644531 564.265625 147.839844 C 565.222656 150.617188 565.699219 153.347656 565.699219 156.03125 L 565.699219 158.96875 C 565.699219 161.652344 565.222656 164.382812 564.265625 167.160156 C 563.167969 170.355469 561.710938 172.65625 559.890625 174.054688 C 559.773438 174.195312 559.714844 174.324219 559.714844 174.441406 C 559.714844 174.765625 559.878906 174.929688 560.203125 174.929688 C 560.25 174.929688 560.332031 174.894531 560.449219 174.824219 Z M 560.449219 174.824219 "/>
<path fill-rule="nonzero" fill="rgb(0%, 0%, 0%)" fill-opacity="1" d="M 603.542969 156.660156 L 593.566406 156.660156 L 593.566406 146.683594 C 593.566406 146.125 593.289062 145.84375 592.726562 145.84375 C 592.167969 145.84375 591.886719 146.125 591.886719 146.683594 L 591.886719 156.660156 L 581.914062 156.660156 C 581.351562 156.660156 581.074219 156.941406 581.074219 157.5 C 581.074219 158.058594 581.351562 158.339844 581.914062 158.339844 L 591.886719 158.339844 L 591.886719 168.316406 C 591.886719 168.875 592.167969 169.15625 592.726562 169.15625 C 593.289062 169.15625 593.566406 168.875 593.566406 168.316406 L 593.566406 158.339844 L 603.542969 158.339844 C 604.101562 158.339844 604.382812 158.058594 604.382812 157.5 C 604.382812 157.035156 604.003906 156.660156 603.542969 156.660156 Z M 603.542969 156.660156 "/>
<path fill-rule="nonzero" fill="rgb(0%, 0%, 0%)" fill-opacity="1" d="M 622.414062 142.941406 C 620.640625 142.941406 619.109375 143.5625 617.8125 144.8125 C 616.519531 146.0625 615.871094 147.570312 615.871094 149.34375 C 615.871094 150.539062 616.75 151.410156 617.832031 151.410156 C 618.894531 151.410156 619.753906 150.515625 619.753906 149.449219 C 619.753906 148.308594 618.925781 147.488281 617.796875 147.488281 C 617.703125 147.488281 617.621094 147.5 617.550781 147.523438 C 618.199219 145.820312 619.757812 144.304688 621.960938 144.304688 C 624.828125 144.304688 626.441406 146.785156 626.441406 149.800781 C 626.441406 152.15625 625.25 154.664062 622.871094 157.324219 L 616.289062 164.746094 C 615.824219 165.261719 615.871094 165.226562 615.871094 166.25 L 628.855469 166.25 L 629.871094 159.949219 L 628.714844 159.949219 C 628.433594 161.722656 628.191406 162.761719 627.980469 163.066406 C 627.816406 163.226562 626.765625 163.308594 624.832031 163.308594 L 618.984375 163.308594 L 622.378906 159.984375 C 624.769531 157.757812 627.761719 155.324219 628.785156 153.476562 C 629.484375 152.261719 629.835938 151.035156 629.835938 149.800781 C 629.835938 145.664062 626.617188 142.941406 622.414062 142.941406 Z M 622.414062 142.941406 "/>
<path fill-rule="nonzero" fill="rgb(0%, 0%, 0%)" fill-opacity="1" d="M 650.054688 161.699219 C 650.054688 159.039062 648.246094 157.359375 644.628906 156.660156 C 642.996094 156.332031 641.90625 155.972656 641.355469 155.574219 C 640.808594 155.179688 640.535156 154.640625 640.535156 153.964844 C 640.535156 152.332031 641.757812 151.515625 644.207031 151.515625 C 646.589844 151.515625 647.871094 152.855469 648.058594 155.539062 C 648.082031 155.820312 648.269531 155.960938 648.617188 155.960938 C 649.015625 155.960938 649.214844 155.644531 649.214844 155.015625 L 649.214844 151.550781 C 649.214844 150.898438 649.039062 150.570312 648.6875 150.570312 C 648.308594 150.570312 647.792969 151.195312 647.429688 151.480469 C 646.542969 150.875 645.46875 150.570312 644.207031 150.570312 C 641.082031 150.570312 638.609375 151.980469 638.609375 154.945312 C 638.609375 156.136719 639.109375 157.136719 640.113281 157.953125 C 641.347656 158.984375 642.496094 159.167969 644.699219 159.566406 C 646.984375 160.007812 648.128906 161.023438 648.128906 162.609375 C 648.128906 164.617188 646.890625 165.621094 644.417969 165.621094 C 642.015625 165.621094 640.476562 164.023438 639.796875 160.824219 C 639.707031 160.359375 639.507812 160.125 639.203125 160.125 C 638.808594 160.125 638.609375 160.464844 638.609375 161.140625 L 638.609375 165.65625 C 638.609375 166.308594 638.785156 166.636719 639.132812 166.636719 C 639.226562 166.636719 639.40625 166.519531 639.675781 166.285156 C 640.3125 165.734375 640.035156 165.839844 640.671875 165.199219 C 641.699219 166.15625 642.949219 166.636719 644.417969 166.636719 C 647.738281 166.636719 650.054688 164.910156 650.054688 161.699219 Z M 650.054688 161.699219 "/>
<path fill-rule="nonzero" fill="rgb(0%, 0%, 0%)" fill-opacity="1" d="M 658.035156 145.214844 C 658.035156 144.152344 657.171875 143.253906 656.109375 143.253906 C 655.042969 143.253906 654.148438 144.152344 654.148438 145.214844 C 654.148438 146.257812 655.039062 147.210938 656.074219 147.210938 C 657.15625 147.210938 658.035156 146.308594 658.035156 145.214844 Z M 656.25 166.144531 L 659.886719 166.25 L 659.886719 164.886719 C 658.722656 164.886719 658.039062 164.816406 657.839844 164.675781 C 657.644531 164.535156 657.542969 164.148438 657.542969 163.519531 L 657.542969 150.675781 L 652.539062 151.09375 L 652.539062 152.425781 C 653.707031 152.425781 654.410156 152.519531 654.65625 152.703125 C 654.902344 152.890625 655.023438 153.382812 655.023438 154.175781 L 655.023438 163.484375 C 655.023438 164.160156 654.902344 164.5625 654.65625 164.691406 C 654.410156 164.820312 653.660156 164.886719 652.398438 164.886719 L 652.398438 166.25 Z M 656.25 166.144531 "/>
<path fill-rule="nonzero" fill="rgb(0%, 0%, 0%)" fill-opacity="1" d="M 671.964844 151.796875 C 673.550781 151.796875 674.34375 153.03125 674.34375 155.503906 L 674.34375 163.484375 C 674.34375 164.160156 674.222656 164.570312 673.976562 164.710938 C 673.730469 164.851562 672.96875 164.921875 671.683594 164.921875 L 671.683594 166.25 L 675.707031 166.144531 L 679.699219 166.25 L 679.699219 164.921875 C 678.578125 164.921875 677.847656 164.875 677.511719 164.78125 C 677.171875 164.6875 677.003906 164.429688 677.003906 164.011719 L 677.003906 157.464844 C 677.003906 155.808594 676.957031 154.652344 676.863281 154 C 676.511719 151.851562 674.949219 150.78125 672.171875 150.78125 C 669.980469 150.78125 668.335938 151.828125 667.238281 153.929688 L 667.238281 150.78125 L 662.09375 151.164062 L 662.09375 152.496094 C 663.355469 152.496094 664.117188 152.59375 664.386719 152.792969 C 664.65625 152.992188 664.789062 153.488281 664.789062 154.28125 L 664.789062 163.484375 C 664.789062 164.160156 664.660156 164.570312 664.402344 164.710938 C 664.148438 164.851562 663.378906 164.921875 662.09375 164.921875 L 662.09375 166.25 L 666.117188 166.144531 L 670.109375 166.25 L 670.109375 164.921875 C 668.824219 164.921875 668.0625 164.851562 667.816406 164.710938 C 667.570312 164.570312 667.449219 164.160156 667.449219 163.484375 L 667.449219 157.183594 C 667.449219 154.367188 669.246094 151.796875 671.964844 151.796875 Z M 671.964844 151.796875 "/>
<path fill-rule="nonzero" fill="rgb(0%, 0%, 0%)" fill-opacity="1" d="M 691.5625 174.929688 C 691.890625 174.929688 692.054688 174.765625 692.054688 174.441406 C 692.054688 174.324219 691.996094 174.195312 691.878906 174.054688 C 690.058594 172.65625 688.601562 170.355469 687.503906 167.160156 C 686.546875 164.382812 686.070312 161.652344 686.070312 158.96875 L 686.070312 156.03125 C 686.070312 153.347656 686.546875 150.617188 687.503906 147.839844 C 688.601562 144.644531 690.058594 142.34375 691.878906 140.945312 C 691.996094 140.828125 692.054688 140.699219 692.054688 140.558594 C 692.054688 140.234375 691.890625 140.070312 691.5625 140.070312 C 691.515625 140.070312 691.433594 140.105469 691.320312 140.175781 C 689.21875 141.785156 687.457031 144.175781 686.035156 147.351562 C 684.65625 150.382812 683.96875 153.277344 683.96875 156.03125 L 683.96875 158.96875 C 683.96875 161.722656 684.65625 164.617188 686.035156 167.648438 C 687.457031 170.824219 689.21875 173.214844 691.320312 174.824219 C 691.433594 174.894531 691.515625 174.929688 691.5625 174.929688 Z M 691.5625 174.929688 "/>
<path fill-rule="nonzero" fill="rgb(0%, 0%, 0%)" fill-opacity="1" d="M 698.179688 155.226562 C 698.367188 155.226562 698.550781 155.097656 698.738281 154.839844 C 699.789062 153.277344 701.222656 152.496094 703.042969 152.496094 C 704.28125 152.496094 705.214844 153.207031 705.84375 154.628906 C 706.242188 155.5625 706.4375 157 706.4375 158.933594 C 706.4375 161.128906 706.171875 162.679688 705.632812 163.589844 C 704.769531 165.035156 703.582031 165.761719 702.0625 165.761719 C 699.714844 165.761719 697.859375 164.054688 697.234375 162.226562 C 697.351562 162.25 697.480469 162.261719 697.617188 162.261719 C 698.683594 162.261719 699.472656 161.472656 699.472656 160.40625 C 699.472656 159.335938 698.6875 158.585938 697.617188 158.585938 C 696.40625 158.585938 695.796875 159.238281 695.796875 160.546875 C 695.796875 164.042969 698.644531 167.019531 702.132812 167.019531 C 704.28125 167.019531 706.089844 166.25 707.558594 164.710938 C 709.027344 163.171875 709.761719 161.328125 709.761719 159.179688 C 709.761719 157.148438 709.167969 155.386719 707.980469 153.894531 C 706.695312 152.261719 705.074219 151.445312 703.113281 151.445312 C 701.457031 151.445312 700.046875 151.96875 698.878906 153.019531 L 698.878906 146.789062 C 699.8125 147.070312 700.746094 147.210938 701.679688 147.210938 C 703.289062 147.210938 704.6875 146.8125 705.878906 146.019531 C 706.953125 145.34375 707.699219 144.691406 708.117188 144.058594 C 708.328125 143.78125 708.433594 143.582031 708.433594 143.464844 C 708.433594 143.113281 708.257812 142.941406 707.910156 142.941406 C 705.972656 143.6875 704.339844 144.058594 703.007812 144.058594 C 701.445312 144.058594 699.941406 143.734375 698.492188 143.078125 C 698.332031 143.011719 698.179688 142.976562 698.039062 142.976562 C 697.710938 142.976562 697.546875 143.300781 697.546875 143.953125 L 697.546875 154.175781 C 697.546875 154.902344 697.542969 155.226562 698.179688 155.226562 Z M 698.179688 155.226562 "/>
<path fill-rule="nonzero" fill="rgb(0%, 0%, 0%)" fill-opacity="1" d="M 723.097656 151.585938 C 723.097656 151.257812 722.738281 151.09375 722.011719 151.09375 L 719.179688 151.09375 C 720.089844 147.453125 720.542969 145.566406 720.542969 145.425781 C 720.542969 144.703125 720.171875 144.339844 719.421875 144.339844 C 718.628906 144.339844 718.128906 144.796875 717.917969 145.703125 L 716.625 151.09375 L 713.507812 151.09375 C 712.726562 151.09375 712.355469 151.121094 712.355469 151.863281 C 712.355469 152.238281 712.714844 152.425781 713.4375 152.425781 L 716.273438 152.425781 C 714.570312 159.238281 713.71875 162.867188 713.71875 163.308594 C 713.71875 165.261719 715.058594 166.636719 717.007812 166.636719 C 718.339844 166.636719 719.503906 166.027344 720.507812 164.816406 C 721.347656 163.8125 721.957031 162.832031 722.328125 161.875 C 722.46875 161.5 722.539062 161.269531 722.539062 161.175781 C 722.539062 160.847656 722.363281 160.683594 722.011719 160.683594 C 721.734375 160.683594 721.523438 160.871094 721.382812 161.246094 C 720.195312 164.136719 718.746094 165.585938 717.042969 165.585938 C 716.4375 165.585938 716.132812 165.105469 716.132812 164.148438 C 716.132812 163.613281 716.203125 163.066406 716.34375 162.503906 L 718.828125 152.425781 L 721.945312 152.425781 C 722.847656 152.425781 723.097656 152.34375 723.097656 151.585938 Z M 723.097656 151.585938 "/>
<path fill-rule="nonzero" fill="rgb(0%, 0%, 0%)" fill-opacity="1" d="M 726.914062 174.824219 C 729.011719 173.214844 730.773438 170.824219 732.199219 167.648438 C 733.574219 164.617188 734.261719 161.722656 734.261719 158.96875 L 734.261719 156.03125 C 734.261719 153.277344 733.574219 150.382812 732.199219 147.351562 C 730.773438 144.175781 729.011719 141.785156 726.914062 140.175781 C 726.796875 140.105469 726.714844 140.070312 726.667969 140.070312 C 726.34375 140.070312 726.179688 140.234375 726.179688 140.558594 C 726.179688 140.699219 726.238281 140.828125 726.355469 140.945312 C 728.171875 142.34375 729.632812 144.644531 730.730469 147.839844 C 731.683594 150.617188 732.164062 153.347656 732.164062 156.03125 L 732.164062 158.96875 C 732.164062 161.652344 731.683594 164.382812 730.730469 167.160156 C 729.632812 170.355469 728.171875 172.65625 726.355469 174.054688 C 726.238281 174.195312 726.179688 174.324219 726.179688 174.441406 C 726.179688 174.765625 726.34375 174.929688 726.667969 174.929688 C 726.714844 174.929688 726.796875 174.894531 726.914062 174.824219 Z M 726.914062 174.824219 "/>
<path fill-rule="nonzero" fill="rgb(0%, 0%, 0%)" fill-opacity="1" d="M 739.375 175 L 743.539062 175 L 743.539062 140 L 739.375 140 C 738.835938 140 738.570312 140.28125 738.570312 140.839844 C 738.570312 141.398438 738.835938 141.679688 739.375 141.679688 L 741.964844 141.679688 L 741.964844 173.320312 L 739.375 173.320312 C 738.835938 173.320312 738.570312 173.601562 738.570312 174.160156 C 738.570312 174.71875 738.835938 175 739.375 175 Z M 739.375 175 "/>
</svg>
