<?xml version="1.0" encoding="UTF-8"?>
<svg xmlns="http://www.w3.org/2000/svg" xmlns:xlink="http://www.w3.org/1999/xlink" width="800" height="400" viewBox="0 0 800 400">
<rect x="-80" y="-40" width="960" height="480" fill="rgb(100%, 100%, 100%)" fill-opacity="1"/>
<path fill-rule="nonzero" fill="rgb(93.333334%, 100%, 86.666667%)" fill-opacity="1" d="M 200 100 L 200 300 L 600 300 L 600 100 Z M 200 100 "/>
<path fill-rule="nonzero" fill="rgb(69.411767%, 5.098039%, 78.823531%)" fill-opacity="1" d="M 229.878906 132.339844 C 229.878906 131.78125 229.558594 131.5 228.921875 131.5 C 228.441406 131.5 228.101562 131.921875 227.898438 132.761719 C 226.699219 137.519531 225.28125 139.898438 223.640625 139.898438 C 222.601562 139.898438 222.078125 139.058594 222.078125 137.378906 C 222.078125 136.578125 222.339844 135.140625 222.859375 133.058594 L 226.28125 119.558594 C 226.558594 118.441406 226.699219 117.738281 226.699219 117.460938 C 226.699219 116.261719 226.039062 115.660156 224.71875 115.660156 C 223.441406 115.660156 222.601562 116.359375 222.199219 117.761719 C 220.921875 115.558594 219.140625 114.460938 216.859375 114.460938 C 212.980469 114.460938 209.539062 116.441406 206.539062 120.398438 C 203.78125 124.121094 202.398438 127.980469 202.398438 131.980469 C 202.398438 137.222656 205.441406 141.640625 210.5 141.640625 C 213.101562 141.640625 215.601562 140.261719 218 137.5 C 218.660156 139.773438 220.695312 141.640625 223.519531 141.640625 C 227.664062 141.640625 228.9375 136.789062 229.878906 132.339844 Z M 220.460938 118.539062 C 221.019531 119.78125 221.300781 120.660156 221.300781 121.179688 C 221.300781 121.421875 221.261719 121.738281 221.179688 122.140625 L 218.238281 133.660156 C 218.039062 134.339844 217.660156 135.039062 217.101562 135.761719 C 214.859375 138.519531 212.699219 139.898438 210.621094 139.898438 C 208.261719 139.898438 207.078125 138.121094 207.078125 134.558594 C 207.078125 133.121094 207.441406 130.960938 208.160156 128.078125 C 209.441406 123 211.199219 119.539062 213.441406 117.699219 C 214.640625 116.699219 215.800781 116.199219 216.921875 116.199219 C 218.558594 116.199219 219.738281 116.980469 220.460938 118.539062 Z M 220.460938 118.539062 "/>
<path fill-rule="nonzero" fill="rgb(69.411767%, 5.098039%, 78.823531%)" fill-opacity="1" d="M 286.953125 124.539062 L 269.851562 124.539062 L 269.851562 107.441406 C 269.851562 106.480469 269.375 106 268.414062 106 C 267.453125 106 266.972656 106.480469 266.972656 107.441406 L 266.972656 124.539062 L 249.875 124.539062 C 248.914062 124.539062 248.433594 125.019531 248.433594 125.980469 C 248.433594 126.941406 248.914062 127.421875 249.875 127.421875 L 266.972656 127.421875 L 266.972656 144.519531 C 266.972656 145.480469 267.453125 145.960938 268.414062 145.960938 C 269.375 145.960938 269.851562 145.480469 269.851562 144.519531 L 269.851562 127.421875 L 286.953125 127.421875 C 287.914062 127.421875 288.394531 126.941406 288.394531 125.980469 C 288.394531 125.1875 287.746094 124.539062 286.953125 124.539062 Z M 286.953125 124.539062 "/>
<path fill-rule="nonzero" fill="rgb(69.411767%, 5.098039%, 78.823531%)" fill-opacity="1" d="M 324.96875 98.691406 C 323.316406 98.691406 321.675781 99.363281 320.054688 100.707031 L 322.785156 89.660156 C 322.8125 89.578125 322.867188 89.339844 322.953125 88.949219 C 322.953125 88.445312 322.671875 88.191406 322.113281 88.191406 L 316.820312 88.613281 C 316.121094 88.667969 315.769531 89.046875 315.769531 89.746094 C 315.769531 90.222656 316.191406 90.460938 317.03125 90.460938 C 317.753906 90.460938 318.835938 90.445312 318.835938 90.921875 C 318.835938 91.035156 318.78125 91.328125 318.667969 91.804688 C 318.023438 94.378906 317.546875 96.3125 317.238281 97.601562 L 314.507812 108.644531 C 314.371094 109.234375 314.300781 109.933594 314.300781 110.746094 C 314.300781 114.671875 316.683594 117.761719 320.515625 117.761719 C 323.371094 117.761719 325.90625 116.472656 328.117188 113.894531 C 330.246094 111.402344 331.308594 108.703125 331.308594 105.789062 C 331.308594 101.8125 328.835938 98.691406 324.96875 98.691406 Z M 317.535156 112.214844 C 317.535156 111.097656 318.050781 108.5625 319.085938 104.613281 C 319.199219 104.082031 319.523438 103.507812 320.054688 102.890625 C 321.59375 101.101562 323.191406 100.203125 324.839844 100.203125 C 326.746094 100.203125 327.699219 101.492188 327.699219 104.066406 C 327.699219 106.484375 326.40625 110.597656 325.578125 112.300781 C 324.71875 114.066406 322.84375 116.246094 320.558594 116.246094 C 318.539062 116.246094 317.535156 114.394531 317.535156 112.214844 Z M 317.535156 112.214844 "/>
<path fill-rule="nonzero" fill="rgb(69.411767%, 5.098039%, 78.823531%)" fill-opacity="1" d="M 330.996094 156.386719 C 330.742188 156.386719 330.492188 156.554688 330.238281 156.890625 C 328.082031 159.382812 325.199219 160.628906 321.585938 160.628906 C 318.816406 160.628906 317.429688 159.144531 317.429688 156.179688 C 317.429688 153.308594 318.824219 149.453125 320.117188 147.777344 C 321.710938 145.679688 323.601562 144.628906 325.785156 144.628906 C 327.242188 144.628906 328.320312 144.964844 329.019531 145.636719 C 327.734375 145.945312 327.089844 146.742188 327.089844 148.03125 C 327.089844 149.148438 327.675781 149.710938 328.851562 149.710938 C 330.417969 149.710938 331.371094 148.453125 331.371094 146.894531 C 331.371094 144.261719 328.6875 143.15625 325.785156 143.15625 C 322.707031 143.15625 319.921875 144.328125 317.429688 146.664062 C 314.9375 149.003906 313.691406 151.699219 313.691406 154.75 C 313.691406 159.175781 317.074219 162.101562 321.503906 162.101562 C 324.105469 162.101562 326.332031 161.597656 328.179688 160.589844 C 329.152344 160.042969 331.875 158.277344 331.875 157.269531 C 331.875 156.894531 331.390625 156.386719 330.996094 156.386719 Z M 330.996094 156.386719 "/>
<path fill="none" stroke-width="2.88" stroke-linecap="butt" stroke-linejoin="miter" stroke="rgb(69.411767%, 5.098039%, 78.823531%)" stroke-opacity="1" stroke-miterlimit="4" d="M -0.000732422 0.000469208 L 21.964111 0.000469208 " transform="matrix(1, 0, 0, 1, 311.08667, 125.98)"/>
<path fill-rule="nonzero" fill="rgb(69.411767%, 5.098039%, 78.823531%)" fill-opacity="1" d="M 397.597656 118.960938 L 360.519531 118.960938 C 359.558594 118.960938 359.078125 119.421875 359.078125 120.339844 C 359.078125 121.261719 359.558594 121.71875 360.519531 121.71875 L 397.597656 121.71875 C 398.558594 121.71875 399.039062 121.261719 399.039062 120.339844 C 399.039062 119.597656 398.359375 118.960938 397.597656 118.960938 Z M 397.597656 130.238281 L 360.519531 130.238281 C 359.558594 130.238281 359.078125 130.699219 359.078125 131.621094 C 359.078125 132.539062 359.558594 133 360.519531 133 L 397.597656 133 C 398.558594 133 399.039062 132.539062 399.039062 131.621094 C 399.039062 130.824219 398.394531 130.238281 397.597656 130.238281 Z M 397.597656 130.238281 "/>
<path fill-rule="nonzero" fill="rgb(69.411767%, 5.098039%, 78.823531%)" fill-opacity="1" d="M 422.425781 98.199219 L 444.085938 128.019531 L 423.085938 154 C 422.6875 154.480469 422.484375 154.839844 422.484375 155.078125 C 422.484375 155.679688 423.105469 155.980469 424.347656 155.980469 L 473.847656 155.980469 L 479.125 140.679688 L 477.085938 140.679688 C 476.324219 142.960938 475.027344 144.960938 473.1875 146.679688 C 468.554688 150.933594 462.210938 152.261719 452.964844 152.261719 L 428.1875 152.261719 L 448.464844 127.058594 C 448.867188 126.578125 449.066406 126.21875 449.066406 125.980469 C 449.066406 125.738281 448.925781 125.421875 448.644531 125.019531 L 429.566406 98.859375 L 452.664062 98.859375 C 459.996094 98.859375 464.914062 99.539062 470.304688 102.371094 C 473.464844 104.03125 475.726562 106.699219 477.085938 110.378906 L 479.125 110.378906 L 473.847656 95.980469 L 424.347656 95.980469 C 422.46875 95.980469 422.425781 96.210938 422.425781 98.199219 Z M 422.425781 98.199219 "/>
<path fill-rule="nonzero" fill="rgb(69.411767%, 5.098039%, 78.823531%)" fill-opacity="1" d="M 496.074219 141.898438 C 496.074219 140.898438 495.269531 140.132812 494.269531 140.132812 C 493.019531 140.132812 491.792969 141.332031 491.792969 142.570312 C 491.792969 143.570312 492.597656 144.335938 493.597656 144.335938 C 494.847656 144.335938 496.074219 143.136719 496.074219 141.898438 Z M 490.488281 149.332031 C 488.53125 149.332031 486.976562 150.339844 485.828125 152.355469 C 484.875 154.035156 484.398438 155.210938 484.398438 155.882812 C 484.398438 156.332031 484.679688 156.554688 485.238281 156.554688 C 485.6875 156.554688 485.996094 156.304688 486.164062 155.800781 C 487.117188 152.496094 488.515625 150.84375 490.363281 150.84375 C 490.953125 150.84375 491.246094 151.277344 491.246094 152.144531 C 491.246094 152.679688 490.824219 154.035156 489.984375 156.21875 L 487.382812 162.898438 C 487.128906 163.570312 487.003906 164.171875 487.003906 164.703125 C 487.003906 166.898438 488.878906 168.398438 491.078125 168.398438 C 493.039062 168.398438 494.578125 167.378906 495.699219 165.335938 C 496.648438 163.652344 497.125 162.507812 497.125 161.890625 C 497.125 161.414062 496.847656 161.175781 496.285156 161.175781 C 496.035156 161.203125 495.753906 161.429688 495.445312 161.847656 C 495.390625 161.902344 495.363281 161.960938 495.363281 162.015625 C 494.410156 165.265625 493.023438 166.886719 491.203125 166.886719 C 490.617188 166.886719 490.320312 166.46875 490.320312 165.628906 C 490.320312 164.984375 490.546875 164.117188 490.992188 163.023438 L 494.3125 154.414062 C 494.480469 153.964844 494.5625 153.503906 494.5625 153.027344 C 494.5625 150.832031 492.6875 149.332031 490.488281 149.332031 Z M 490.488281 149.332031 "/>
<path fill-rule="nonzero" fill="rgb(69.411767%, 5.098039%, 78.823531%)" fill-opacity="1" d="M 544.375 118.601562 C 544.375 115.84375 541.664062 114.460938 538.675781 114.460938 C 536.113281 114.460938 534.054688 115.839844 532.492188 118.601562 C 531.253906 115.839844 529.113281 114.460938 526.074219 114.460938 C 523.152344 114.460938 520.734375 115.820312 518.8125 118.539062 C 517.175781 120.898438 516.355469 122.640625 516.355469 123.761719 C 516.355469 124.320312 516.652344 124.601562 517.253906 124.601562 C 517.8125 124.601562 518.152344 124.320312 518.273438 123.761719 C 519.394531 120.257812 521.964844 116.199219 525.953125 116.199219 C 527.914062 116.199219 528.894531 117.441406 528.894531 119.921875 C 528.894531 121.199219 527.835938 125.859375 525.714844 133.898438 C 524.675781 137.898438 522.875 139.898438 520.3125 139.898438 C 519.472656 139.898438 518.714844 139.738281 518.035156 139.421875 C 519.59375 138.820312 520.375 137.738281 520.375 136.179688 C 520.375 134.621094 519.574219 133.839844 517.972656 133.839844 C 515.988281 133.839844 514.492188 135.515625 514.492188 137.5 C 514.492188 140.253906 517.339844 141.640625 520.253906 141.640625 C 522.773438 141.640625 524.835938 140.261719 526.433594 137.5 C 527.59375 140.261719 529.734375 141.640625 532.855469 141.640625 C 535.734375 141.640625 538.132812 140.28125 540.054688 137.558594 C 541.695312 135.199219 542.515625 133.460938 542.515625 132.339844 C 542.515625 131.78125 542.214844 131.5 541.613281 131.5 C 541.09375 131.5 540.753906 131.78125 540.59375 132.339844 C 539.546875 135.753906 536.859375 139.898438 532.972656 139.898438 C 530.972656 139.898438 529.972656 138.679688 529.972656 136.238281 C 529.972656 135.480469 530.292969 133.761719 530.933594 131.078125 L 532.972656 122.980469 C 534.09375 118.460938 535.972656 116.199219 538.613281 116.199219 C 539.453125 116.199219 540.214844 116.359375 540.894531 116.679688 C 539.292969 117.238281 538.492188 118.320312 538.492188 119.921875 C 538.492188 121.480469 539.3125 122.261719 540.953125 122.261719 C 542.859375 122.261719 544.375 120.5 544.375 118.601562 Z M 544.375 118.601562 "/>
<path fill-rule="nonzero" fill="rgb(69.411767%, 5.098039%, 78.823531%)" fill-opacity="1" d="M 560.722656 93.117188 C 560.722656 92.117188 559.917969 91.355469 558.917969 91.355469 C 557.667969 91.355469 556.441406 92.550781 556.441406 93.789062 C 556.441406 94.792969 557.246094 95.554688 558.246094 95.554688 C 559.496094 95.554688 560.722656 94.355469 560.722656 93.117188 Z M 555.136719 100.550781 C 553.179688 100.550781 551.625 101.558594 550.476562 103.574219 C 549.523438 105.257812 549.046875 106.433594 549.046875 107.105469 C 549.046875 107.550781 549.328125 107.777344 549.886719 107.777344 C 550.335938 107.777344 550.644531 107.523438 550.8125 107.019531 C 551.765625 103.714844 553.164062 102.0625 555.011719 102.0625 C 555.601562 102.0625 555.894531 102.496094 555.894531 103.367188 C 555.894531 103.898438 555.472656 105.257812 554.632812 107.441406 L 552.03125 114.117188 C 551.777344 114.789062 551.652344 115.390625 551.652344 115.925781 C 551.652344 118.117188 553.527344 119.621094 555.726562 119.621094 C 557.6875 119.621094 559.226562 118.597656 560.347656 116.554688 C 561.296875 114.875 561.773438 113.726562 561.773438 113.109375 C 561.773438 112.632812 561.492188 112.394531 560.933594 112.394531 C 560.683594 112.425781 560.402344 112.648438 560.09375 113.066406 C 560.039062 113.125 560.011719 113.179688 560.011719 113.234375 C 559.058594 116.484375 557.671875 118.109375 555.851562 118.109375 C 555.265625 118.109375 554.96875 117.6875 554.96875 116.847656 C 554.96875 116.203125 555.195312 115.335938 555.640625 114.242188 L 558.960938 105.632812 C 559.128906 105.1875 559.210938 104.722656 559.210938 104.246094 C 559.210938 102.054688 557.335938 100.550781 555.136719 100.550781 Z M 555.136719 100.550781 "/>
</svg>
