<?xml version="1.0" encoding="UTF-8"?>
<svg xmlns="http://www.w3.org/2000/svg" xmlns:xlink="http://www.w3.org/1999/xlink" width="600pt" height="250pt" viewBox="0 0 600 250" version="1.1">
<g id="surface988">
<rect x="0" y="0" width="600" height="250" style="fill:rgb(100%,100%,100%);fill-opacity:1;stroke:none;"/>
<path style="fill:none;stroke-width:1;stroke-linecap:butt;stroke-linejoin:miter;stroke:rgb(100%,0%,0%);stroke-opacity:0.75;stroke-dasharray:1,3;stroke-miterlimit:10;" d="M 318.542969 182.0625 L 293.511719 144.972656 L 251.457031 160.265625 L 279 125 L 251.457031 89.734375 L 293.511719 105.027344 L 318.542969 67.9375 L 316.988281 112.65625 L 360 125 L 316.988281 137.34375 Z M 318.542969 182.0625 "/>
<path style="fill:none;stroke-width:1;stroke-linecap:butt;stroke-linejoin:miter;stroke:rgb(100%,0%,0%);stroke-opacity:0.75;stroke-dasharray:1,3;stroke-miterlimit:10;" d="M 320.542969 182.0625 C 320.542969 184.730469 316.542969 184.730469 316.542969 182.0625 C 316.542969 179.398438 320.542969 179.398438 320.542969 182.0625 "/>
<path style="fill:none;stroke-width:1;stroke-linecap:butt;stroke-linejoin:miter;stroke:rgb(100%,0%,0%);stroke-opacity:0.75;stroke-dasharray:1,3;stroke-miterlimit:10;" d="M 295.511719 144.972656 C 295.511719 147.640625 291.511719 147.640625 291.511719 144.972656 C 291.511719 142.304688 295.511719 142.304688 295.511719 144.972656 "/>
<path style="fill:none;stroke-width:1;stroke-linecap:butt;stroke-linejoin:miter;stroke:rgb(100%,0%,0%);stroke-opacity:0.75;stroke-dasharray:1,3;stroke-miterlimit:10;" d="M 253.457031 160.265625 C 253.457031 162.933594 249.457031 162.933594 249.457031 160.265625 C 249.457031 157.601562 253.457031 157.601562 253.457031 160.265625 "/>
<path style="fill:none;stroke-width:1;stroke-linecap:butt;stroke-linejoin:miter;stroke:rgb(100%,0%,0%);stroke-opacity:0.75;stroke-dasharray:1,3;stroke-miterlimit:10;" d="M 281 125 C 281 127.667969 277 127.667969 277 125 C 277 122.332031 281 122.332031 281 125 "/>
<path style="fill:none;stroke-width:1;stroke-linecap:butt;stroke-linejoin:miter;stroke:rgb(100%,0%,0%);stroke-opacity:0.75;stroke-dasharray:1,3;stroke-miterlimit:10;" d="M 253.457031 89.734375 C 253.457031 92.398438 249.457031 92.398438 249.457031 89.734375 C 249.457031 87.066406 253.457031 87.066406 253.457031 89.734375 "/>
<path style="fill:none;stroke-width:1;stroke-linecap:butt;stroke-linejoin:miter;stroke:rgb(100%,0%,0%);stroke-opacity:0.75;stroke-dasharray:1,3;stroke-miterlimit:10;" d="M 295.511719 105.027344 C 295.511719 107.695312 291.511719 107.695312 291.511719 105.027344 C 291.511719 102.359375 295.511719 102.359375 295.511719 105.027344 "/>
<path style="fill:none;stroke-width:1;stroke-linecap:butt;stroke-linejoin:miter;stroke:rgb(100%,0%,0%);stroke-opacity:0.75;stroke-dasharray:1,3;stroke-miterlimit:10;" d="M 320.542969 67.9375 C 320.542969 70.601562 316.542969 70.601562 316.542969 67.9375 C 316.542969 65.269531 320.542969 65.269531 320.542969 67.9375 "/>
<path style="fill:none;stroke-width:1;stroke-linecap:butt;stroke-linejoin:miter;stroke:rgb(100%,0%,0%);stroke-opacity:0.75;stroke-dasharray:1,3;stroke-miterlimit:10;" d="M 318.988281 112.65625 C 318.988281 115.324219 314.988281 115.324219 314.988281 112.65625 C 314.988281 109.988281 318.988281 109.988281 318.988281 112.65625 "/>
<path style="fill:none;stroke-width:1;stroke-linecap:butt;stroke-linejoin:miter;stroke:rgb(100%,0%,0%);stroke-opacity:0.75;stroke-dasharray:1,3;stroke-miterlimit:10;" d="M 362 125 C 362 127.667969 358 127.667969 358 125 C 358 122.332031 362 122.332031 362 125 "/>
<path style="fill:none;stroke-width:1;stroke-linecap:butt;stroke-linejoin:miter;stroke:rgb(100%,0%,0%);stroke-opacity:0.75;stroke-dasharray:1,3;stroke-miterlimit:10;" d="M 318.988281 137.34375 C 318.988281 140.011719 314.988281 140.011719 314.988281 137.34375 C 314.988281 134.675781 318.988281 134.675781 318.988281 137.34375 "/>
<path style="fill:none;stroke-width:1;stroke-linecap:butt;stroke-linejoin:miter;stroke:rgb(0%,0%,0%);stroke-opacity:0.75;stroke-miterlimit:10;" d="M 317.828125 193.238281 C 317.828125 215.332031 299.917969 233.238281 277.828125 233.238281 C 255.734375 233.238281 237.828125 215.332031 237.828125 193.238281 C 237.828125 171.148438 255.734375 153.238281 277.828125 153.238281 C 299.917969 153.238281 317.828125 171.148438 317.828125 193.238281 "/>
<path style="fill:none;stroke-width:1;stroke-linecap:butt;stroke-linejoin:miter;stroke:rgb(0%,0%,0%);stroke-opacity:0.75;stroke-miterlimit:10;" d="M 301.964844 132.902344 C 301.964844 139.996094 296.214844 145.746094 289.121094 145.746094 C 282.027344 145.746094 276.28125 139.996094 276.28125 132.902344 C 276.28125 125.8125 282.027344 120.0625 289.121094 120.0625 C 296.214844 120.0625 301.964844 125.8125 301.964844 132.902344 "/>
<path style="fill:none;stroke-width:1;stroke-linecap:butt;stroke-linejoin:miter;stroke:rgb(0%,0%,0%);stroke-opacity:0.75;stroke-miterlimit:10;" d="M 268.25 125 C 268.25 147.089844 250.339844 165 228.25 165 C 206.15625 165 188.25 147.089844 188.25 125 C 188.25 102.910156 206.15625 85 228.25 85 C 250.339844 85 268.25 102.910156 268.25 125 "/>
<path style="fill:none;stroke-width:1;stroke-linecap:butt;stroke-linejoin:miter;stroke:rgb(0%,0%,0%);stroke-opacity:0.75;stroke-miterlimit:10;" d="M 301.964844 117.097656 C 301.964844 124.1875 296.214844 129.9375 289.121094 129.9375 C 282.027344 129.9375 276.28125 124.1875 276.28125 117.097656 C 276.28125 110.003906 282.027344 104.253906 289.121094 104.253906 C 296.214844 104.253906 301.964844 110.003906 301.964844 117.097656 "/>
<path style="fill:none;stroke-width:1;stroke-linecap:butt;stroke-linejoin:miter;stroke:rgb(0%,0%,0%);stroke-opacity:0.75;stroke-miterlimit:10;" d="M 317.828125 56.761719 C 317.828125 78.851562 299.917969 96.761719 277.828125 96.761719 C 255.734375 96.761719 237.828125 78.851562 237.828125 56.761719 C 237.828125 34.667969 255.734375 16.761719 277.828125 16.761719 C 299.917969 16.761719 317.828125 34.667969 317.828125 56.761719 "/>
<path style="fill:none;stroke-width:1;stroke-linecap:butt;stroke-linejoin:miter;stroke:rgb(0%,0%,0%);stroke-opacity:0.75;stroke-miterlimit:10;" d="M 316.996094 112.210938 C 316.996094 119.304688 311.246094 125.054688 304.15625 125.054688 C 297.0625 125.054688 291.3125 119.304688 291.3125 112.210938 C 291.3125 105.117188 297.0625 99.371094 304.15625 99.371094 C 311.246094 99.371094 316.996094 105.117188 316.996094 112.210938 "/>
<path style="fill:none;stroke-width:1;stroke-linecap:butt;stroke-linejoin:miter;stroke:rgb(0%,0%,0%);stroke-opacity:0.75;stroke-miterlimit:10;" d="M 398.046875 82.824219 C 398.046875 104.917969 380.140625 122.824219 358.046875 122.824219 C 335.957031 122.824219 318.046875 104.917969 318.046875 82.824219 C 318.046875 60.734375 335.957031 42.824219 358.046875 42.824219 C 380.140625 42.824219 398.046875 60.734375 398.046875 82.824219 "/>
<path style="fill:none;stroke-width:1;stroke-linecap:butt;stroke-linejoin:miter;stroke:rgb(0%,0%,0%);stroke-opacity:0.75;stroke-miterlimit:10;" d="M 326.289062 125 C 326.289062 132.09375 320.539062 137.839844 313.445312 137.839844 C 306.355469 137.839844 300.605469 132.09375 300.605469 125 C 300.605469 117.90625 306.355469 112.160156 313.445312 112.160156 C 320.539062 112.160156 326.289062 117.90625 326.289062 125 "/>
<path style="fill:none;stroke-width:1;stroke-linecap:butt;stroke-linejoin:miter;stroke:rgb(0%,0%,0%);stroke-opacity:0.75;stroke-miterlimit:10;" d="M 398.046875 167.175781 C 398.046875 189.265625 380.140625 207.175781 358.046875 207.175781 C 335.957031 207.175781 318.046875 189.265625 318.046875 167.175781 C 318.046875 145.082031 335.957031 127.175781 358.046875 127.175781 C 380.140625 127.175781 398.046875 145.082031 398.046875 167.175781 "/>
<path style="fill:none;stroke-width:1;stroke-linecap:butt;stroke-linejoin:miter;stroke:rgb(0%,0%,0%);stroke-opacity:0.75;stroke-miterlimit:10;" d="M 316.996094 137.789062 C 316.996094 144.882812 311.246094 150.628906 304.15625 150.628906 C 297.0625 150.628906 291.3125 144.882812 291.3125 137.789062 C 291.3125 130.695312 297.0625 124.945312 304.15625 124.945312 C 311.246094 124.945312 316.996094 130.695312 316.996094 137.789062 "/>
<path style=" stroke:none;fill-rule:nonzero;fill:rgb(0%,0%,0%);fill-opacity:0.75;" d="M 310.984375 170.863281 C 300.714844 155.648438 281.40625 149.375 264.15625 155.648438 L 293.511719 144.972656 C 288.128906 146.929688 282.097656 145.085938 278.730469 140.453125 C 275.363281 135.816406 275.472656 129.515625 279 125 L 259.773438 149.621094 C 271.074219 135.152344 271.074219 114.847656 259.773438 100.378906 L 279 125 C 275.472656 120.484375 275.363281 114.183594 278.730469 109.546875 C 282.097656 104.914062 288.128906 103.070312 293.511719 105.027344 L 264.15625 94.351562 C 281.40625 100.625 300.714844 94.351562 310.984375 79.136719 L 293.511719 105.027344 C 296.714844 100.28125 302.675781 98.226562 308.125 99.996094 C 313.570312 101.769531 317.1875 106.933594 316.988281 112.65625 L 318.074219 81.4375 C 317.4375 99.785156 329.371094 116.210938 347.015625 121.273438 L 316.988281 112.65625 C 322.496094 114.238281 326.289062 119.273438 326.289062 125 C 326.289062 130.726562 322.496094 135.761719 316.988281 137.34375 L 347.015625 128.726562 C 329.371094 133.789062 317.4375 150.214844 318.074219 168.5625 L 316.988281 137.34375 C 317.1875 143.066406 313.570312 148.230469 308.125 150.003906 C 302.675781 151.773438 296.714844 149.71875 293.511719 144.972656 L 310.984375 170.863281 "/>
</g>
</svg>
