<?xml version="1.0" encoding="UTF-8"?>
<svg xmlns="http://www.w3.org/2000/svg" xmlns:xlink="http://www.w3.org/1999/xlink" width="600pt" height="250pt" viewBox="0 0 600 250" version="1.1">
<g id="surface983">
<rect x="0" y="0" width="600" height="250" style="fill:rgb(100%,100%,100%);fill-opacity:1;stroke:none;"/>
<path style="fill:none;stroke-width:0.7;stroke-linecap:butt;stroke-linejoin:miter;stroke:rgb(100%,0%,0%);stroke-opacity:0.5;stroke-miterlimit:10;" d="M 85.304688 178.257812 L 62.808594 140.976562 L 22.695312 157.914062 L 51.199219 125 L 22.695312 92.085938 L 62.808594 109.023438 L 85.304688 71.742188 L 81.589844 115.125 L 124 125 L 81.589844 134.875 Z M 85.304688 178.257812 "/>
<path style=" stroke:none;fill-rule:nonzero;fill:rgb(0%,0%,0%);fill-opacity:0.5;" d="M 63.703125 142.460938 C 63.191406 141.609375 62.128906 141.265625 61.214844 141.652344 L 30.609375 154.574219 C 28.65625 155.398438 26.933594 153.023438 28.316406 151.421875 L 50.066406 126.308594 C 50.71875 125.558594 50.71875 124.441406 50.066406 123.691406 L 28.316406 98.578125 C 26.933594 96.976562 28.65625 94.601562 30.609375 95.425781 L 61.214844 108.347656 C 62.128906 108.734375 63.191406 108.390625 63.703125 107.539062 L 80.867188 79.09375 C 81.960938 77.28125 84.753906 78.1875 84.574219 80.296875 L 81.738281 113.398438 C 81.65625 114.390625 82.308594 115.292969 83.277344 115.519531 L 115.632812 123.050781 C 117.695312 123.53125 117.695312 126.46875 115.632812 126.949219 L 83.277344 134.480469 C 82.308594 134.707031 81.65625 135.609375 81.738281 136.601562 L 84.574219 169.703125 C 84.753906 171.8125 81.960938 172.71875 80.867188 170.90625 L 63.703125 142.460938 "/>
<path style="fill:none;stroke-width:0.7;stroke-linecap:butt;stroke-linejoin:miter;stroke:rgb(100%,0%,0%);stroke-opacity:0.5;stroke-miterlimit:10;" d="M 201.304688 178.257812 L 178.808594 140.976562 L 138.695312 157.914062 L 167.199219 125 L 138.695312 92.085938 L 178.808594 109.023438 L 201.304688 71.742188 L 197.589844 115.125 L 240 125 L 197.589844 134.875 Z M 201.304688 178.257812 "/>
<path style=" stroke:none;fill-rule:nonzero;fill:rgb(0%,0%,0%);fill-opacity:0.5;" d="M 180.597656 143.945312 C 179.570312 142.242188 177.449219 141.550781 175.617188 142.324219 L 154.519531 151.234375 C 150.621094 152.878906 147.167969 148.128906 149.941406 144.929688 L 164.933594 127.617188 C 166.234375 126.117188 166.234375 123.882812 164.933594 122.382812 L 149.941406 105.070312 C 147.167969 101.871094 150.621094 97.121094 154.519531 98.765625 L 175.617188 107.675781 C 177.449219 108.449219 179.570312 107.757812 180.597656 106.054688 L 192.429688 86.449219 C 194.617188 82.824219 200.199219 84.636719 199.839844 88.855469 L 197.886719 111.675781 C 197.71875 113.65625 199.027344 115.460938 200.964844 115.910156 L 223.269531 121.105469 C 227.394531 122.0625 227.394531 127.9375 223.269531 128.894531 L 200.964844 134.089844 C 199.027344 134.539062 197.71875 136.34375 197.886719 138.324219 L 199.839844 161.144531 C 200.199219 165.363281 194.617188 167.175781 192.429688 163.550781 L 180.597656 143.945312 "/>
<path style="fill:none;stroke-width:0.7;stroke-linecap:butt;stroke-linejoin:miter;stroke:rgb(100%,0%,0%);stroke-opacity:0.5;stroke-miterlimit:10;" d="M 317.304688 178.257812 L 294.808594 140.976562 L 254.695312 157.914062 L 283.199219 125 L 254.695312 92.085938 L 294.808594 109.023438 L 317.304688 71.742188 L 313.589844 115.125 L 356 125 L 313.589844 134.875 Z M 317.304688 178.257812 "/>
<path style=" stroke:none;fill-rule:nonzero;fill:rgb(0%,0%,0%);fill-opacity:0.5;" d="M 297.492188 145.425781 C 295.953125 142.871094 292.769531 141.839844 290.023438 143 L 278.433594 147.890625 C 275.863281 148.976562 272.886719 148.148438 271.246094 145.890625 C 269.605469 143.636719 269.738281 140.546875 271.5625 138.4375 L 279.796875 128.929688 C 281.75 126.671875 281.75 123.328125 279.796875 121.070312 L 271.5625 111.5625 C 269.738281 109.453125 269.605469 106.363281 271.246094 104.109375 C 272.886719 101.851562 275.863281 101.023438 278.433594 102.109375 L 290.023438 107 C 292.769531 108.160156 295.953125 107.128906 297.492188 104.574219 L 303.992188 93.804688 C 305.433594 91.414062 308.332031 90.335938 310.984375 91.195312 C 313.636719 92.058594 315.34375 94.636719 315.105469 97.414062 L 314.035156 109.949219 C 313.78125 112.917969 315.746094 115.628906 318.652344 116.304688 L 330.902344 119.15625 C 333.621094 119.789062 335.542969 122.210938 335.542969 125 C 335.542969 127.789062 333.621094 130.210938 330.902344 130.84375 L 318.652344 133.695312 C 315.746094 134.371094 313.78125 137.082031 314.035156 140.050781 L 315.105469 152.585938 C 315.34375 155.363281 313.636719 157.941406 310.984375 158.804688 C 308.332031 159.664062 305.433594 158.585938 303.992188 156.195312 L 297.492188 145.425781 "/>
<path style="fill:none;stroke-width:0.7;stroke-linecap:butt;stroke-linejoin:miter;stroke:rgb(100%,0%,0%);stroke-opacity:0.5;stroke-miterlimit:10;" d="M 433.304688 178.257812 L 410.808594 140.976562 L 370.695312 157.914062 L 399.199219 125 L 370.695312 92.085938 L 410.808594 109.023438 L 433.304688 71.742188 L 429.589844 115.125 L 472 125 L 429.589844 134.875 Z M 433.304688 178.257812 "/>
<path style=" stroke:none;fill-rule:nonzero;fill:rgb(0%,0%,0%);fill-opacity:0.5;" d="M 414.386719 146.910156 C 412.332031 143.503906 408.089844 142.125 404.425781 143.671875 L 402.347656 144.550781 C 398.917969 145.996094 394.949219 144.890625 392.761719 141.882812 C 390.574219 138.875 390.75 134.753906 393.1875 131.945312 L 394.664062 130.238281 C 397.269531 127.230469 397.269531 122.769531 394.664062 119.761719 L 393.1875 118.054688 C 390.75 115.246094 390.574219 111.125 392.761719 108.117188 C 394.949219 105.109375 398.917969 104.003906 402.347656 105.449219 L 404.425781 106.328125 C 408.089844 107.875 412.332031 106.496094 414.386719 103.089844 L 415.554688 101.15625 C 417.476562 97.972656 421.339844 96.53125 424.875 97.683594 C 428.414062 98.832031 430.691406 102.265625 430.375 105.972656 L 430.183594 108.222656 C 429.84375 112.183594 432.464844 115.792969 436.339844 116.695312 L 438.539062 117.207031 C 442.160156 118.050781 444.722656 121.28125 444.722656 125 C 444.722656 128.71875 442.160156 131.949219 438.539062 132.792969 L 436.339844 133.304688 C 432.464844 134.207031 429.84375 137.816406 430.183594 141.777344 L 430.375 144.027344 C 430.691406 147.734375 428.414062 151.167969 424.875 152.316406 C 421.339844 153.46875 417.476562 152.027344 415.554688 148.84375 L 414.386719 146.910156 "/>
<path style="fill:none;stroke-width:0.7;stroke-linecap:butt;stroke-linejoin:miter;stroke:rgb(100%,0%,0%);stroke-opacity:0.5;stroke-miterlimit:10;" d="M 549.304688 178.257812 L 526.808594 140.976562 L 486.695312 157.914062 L 515.199219 125 L 486.695312 92.085938 L 526.808594 109.023438 L 549.304688 71.742188 L 545.589844 115.125 L 588 125 L 545.589844 134.875 Z M 549.304688 178.257812 "/>
<path style=" stroke:none;fill-rule:nonzero;fill:rgb(0%,0%,0%);fill-opacity:0.5;" d="M 531.28125 148.390625 C 528.714844 144.136719 523.410156 142.414062 518.832031 144.347656 L 526.257812 141.210938 C 521.976562 143.019531 517.011719 141.636719 514.277344 137.875 C 511.546875 134.113281 511.765625 128.964844 514.808594 125.449219 L 509.53125 131.546875 C 512.785156 127.789062 512.785156 122.210938 509.53125 118.453125 L 514.808594 124.550781 C 511.765625 121.035156 511.546875 115.886719 514.277344 112.125 C 517.011719 108.363281 521.976562 106.980469 526.257812 108.789062 L 518.832031 105.652344 C 523.410156 107.585938 528.714844 105.863281 531.28125 101.609375 L 527.117188 108.511719 C 529.519531 104.53125 534.347656 102.730469 538.769531 104.167969 C 543.191406 105.605469 546.039062 109.898438 545.640625 114.53125 L 546.328125 106.496094 C 545.90625 111.449219 549.183594 115.960938 554.027344 117.089844 L 546.171875 115.261719 C 550.699219 116.316406 553.90625 120.351562 553.90625 125 C 553.90625 129.648438 550.699219 133.683594 546.171875 134.738281 L 554.027344 132.910156 C 549.183594 134.039062 545.90625 138.550781 546.328125 143.503906 L 545.640625 135.46875 C 546.039062 140.101562 543.191406 144.394531 538.769531 145.832031 C 534.347656 147.269531 529.519531 145.46875 527.117188 141.488281 L 531.28125 148.390625 "/>
</g>
</svg>
